<?xml version="1.0" encoding="UTF-8"?>
<svg id="uuid-d9c3fe37-dd0d-4ba5-bcdf-c637994a20ea" data-name="Слой 2" xmlns="http://www.w3.org/2000/svg" viewBox="0 0 106.28 95.44">
  <defs>
    <style>
      .uuid-cbe0f699-b0eb-4378-98fa-3084d77c3664, .uuid-d423a157-b723-4367-b1d8-26979d6d00d6 {
        fill: #fff;
<!--        stroke: #000;-->
        stroke-miterlimit: 10;
      }

      .uuid-d423a157-b723-4367-b1d8-26979d6d00d6 {
        fill: none;
        stroke: #fff;
        stroke-linecap: round;
        stroke-width: 3px;
      }
    </style>
  </defs>
  <g id="uuid-375e6b46-93dc-49ae-8705-20b449607a9f" data-name="uuid-b5d1e208-1690-4ef4-bdb1-963ca743e626">
    <g>
      <path class="uuid-cbe0f699-b0eb-4378-98fa-3084d77c3664" d="M33.5,30.33v33.82c0,2.15-.45,4.19-1.27,6.04-2.32,5.32-7.64,9.05-13.82,9.05h-2.82c-8.33,0-15.09-6.76-15.09-15.09V30.33c0-8.33,6.76-15.09,15.09-15.09h2.82c6.47,0,12,4.08,14.13,9.81,.62,1.64,.96,3.42,.96,5.28h0Z"/>
      <path class="uuid-cbe0f699-b0eb-4378-98fa-3084d77c3664" d="M82.5,11.76V83.69c0,9.08-10.21,14.41-17.65,9.22l-32.62-22.72c.82-1.85,1.27-3.89,1.27-6.04V30.33c0-1.86-.34-3.64-.96-5.28L64.85,2.54c7.44-5.19,17.65,.14,17.65,9.22Z"/>
      <path class="uuid-cbe0f699-b0eb-4378-98fa-3084d77c3664" d="M96.5,47.74c0,7.84-6.22,14.23-14,14.49v-28.98c7.78,.26,14,6.65,14,14.49Z"/>
      <path class="uuid-d423a157-b723-4367-b1d8-26979d6d00d6" d="M97.79,27.93c10.51,11.27,9.89,28.89-1.39,39.4"/>
    </g>
  </g>
</svg>