<?xml version="1.0" encoding="UTF-8"?>
<svg id="uuid-c9d90d2a-6ff5-4cca-bdda-180da55b4e5e" data-name="Слой 2" xmlns="http://www.w3.org/2000/svg" viewBox="0 0 107 107">
  <defs>
    <style>
      .uuid-da4914ce-f3ce-4790-9faf-881898e4de8b {
        fill: none;
        stroke: #000;
        stroke-miterlimit: 10;
      }
    </style>
  </defs>
  <g id="uuid-b87498e3-6719-4efb-b438-68f4bea1a88e" data-name="uuid-b5d1e208-1690-4ef4-bdb1-963ca743e626">
    <rect class="uuid-da4914ce-f3ce-4790-9faf-881898e4de8b" x=".5" y=".5" width="106" height="106" rx="19.76" ry="19.76"/>
    <path class="uuid-da4914ce-f3ce-4790-9faf-881898e4de8b" d="M39.5,61.75v17.75h40.92c4.37,0,7.92,3.54,7.92,7.92,0,2.18-.89,4.16-2.32,5.59-1.44,1.43-3.42,2.32-5.6,2.32H26.2s-.06-.01-.09-.01c-3.69-.76-6.61-3.65-7.4-7.33-.14-.65-.21-1.32-.21-2.01V21.04c0-.75,.09-1.47,.25-2.17,.7-2.98,2.79-5.43,5.56-6.61h.01c.73-.21,1.49-.33,2.29-.33h53.81c4.37,0,7.92,3.54,7.92,7.91,0,2.19-.89,4.17-2.32,5.6-1.44,1.43-3.42,2.32-5.6,2.32H39.5v18.17h40.92c4.37,0,7.92,3.54,7.92,7.91,0,2.19-.89,4.17-2.32,5.6-1.44,1.43-3.42,2.32-5.6,2.32H39.5Z"/>
  </g>
</svg>