<svg width="259" height="259" viewBox="0 0 259 259" fill="none" xmlns="http://www.w3.org/2000/svg">
  <path fill-rule="evenodd" clip-rule="evenodd" d="M182.56 0.5H76.44C34.4995 0.5 0.5 34.4995 0.5 76.44V182.56C0.5 224.501 34.4995 258.5 76.44 258.5H182.56C224.501 258.5 258.5 224.501 258.5 182.56V76.44C258.5 34.4995 224.501 0.5 182.56 0.5ZM94 62.5C106.98 62.5 117.5 73.02 117.5 86V173C117.5 185.98 106.98 196.5 94 196.5C81.02 196.5 70.5 185.98 70.5 173V86C70.5 73.02 81.02 62.5 94 62.5ZM181.5 86C181.5 73.02 170.98 62.5 158 62.5C145.02 62.5 134.5 73.02 134.5 86V173C134.5 185.98 145.02 196.5 158 196.5C170.98 196.5 181.5 185.98 181.5 173V86Z" fill="white"/>
  <path d="M76.44 1H182.56V0H76.44V1ZM1 76.44C1 34.7756 34.7756 1 76.44 1V0C34.2234 0 0 34.2234 0 76.44H1ZM1 182.56V76.44H0V182.56H1ZM76.44 258C34.7756 258 1 224.224 1 182.56H0C0 224.777 34.2234 259 76.44 259V258ZM182.56 258H76.44V259H182.56V258ZM258 182.56C258 224.224 224.224 258 182.56 258V259C224.777 259 259 224.777 259 182.56H258ZM258 76.44V182.56H259V76.44H258ZM182.56 1C224.224 1 258 34.7756 258 76.44H259C259 34.2234 224.777 0 182.56 0V1ZM118 86C118 72.7439 107.256 62 94 62V63C106.704 63 117 73.2961 117 86H118ZM118 173V86H117V173H118ZM94 197C107.256 197 118 186.256 118 173H117C117 185.704 106.704 196 94 196V197ZM70 173C70 186.256 80.7439 197 94 197V196C81.2961 196 71 185.704 71 173H70ZM70 86V173H71V86H70ZM94 62C80.7439 62 70 72.7439 70 86H71C71 73.2961 81.2961 63 94 63V62ZM158 63C170.704 63 181 73.2961 181 86H182C182 72.7439 171.256 62 158 62V63ZM135 86C135 73.2961 145.296 63 158 63V62C144.744 62 134 72.7439 134 86H135ZM135 173V86H134V173H135ZM158 196C145.296 196 135 185.704 135 173H134C134 186.256 144.744 197 158 197V196ZM181 173C181 185.704 170.704 196 158 196V197C171.256 197 182 186.256 182 173H181ZM181 86V173H182V86H181Z" fill="black"/>
</svg>