<svg width="11" height="12" viewBox="0 0 11 12" fill="none" xmlns="http://www.w3.org/2000/svg">
    <g filter="url(#filter0_i_1355_210)">
        <mask id="path-1-outside-1_1355_210" maskUnits="userSpaceOnUse" x="4.5" y="2.5" width="6" height="10" fill="black">
            <rect fill="white" x="4.5" y="2.5" width="6" height="10"/>
            <path d="M8.41491 9.99071C8.37845 10.2911 8.32006 10.5883 8.24014 10.88L8.20727 11L8.50847 10.812C8.58768 10.7625 8.66316 10.7073 8.73434 10.6467C8.82799 10.567 8.91375 10.4784 8.99048 10.382L9.18752 10.1346L9.36138 9.86142C9.46162 9.70391 9.55064 9.53948 9.62775 9.3693C9.72404 9.15685 9.80143 8.93627 9.859 8.71008L9.93517 8.41079L9.95543 8.30209C10.015 7.98257 10.045 7.65816 10.045 7.33308V6.74387L10.0399 6.70651C9.99043 6.34281 9.90137 5.9857 9.77429 5.64155L9.59428 5.2571L9.43523 4.99476L9.35296 4.87841L9.25946 4.75493L9.25694 4.75211C9.09331 4.56911 8.91651 4.39848 8.728 4.24155L8.67801 4.20991C8.42517 4.04978 8.161 3.90851 7.88764 3.78721L7.81132 3.75337L7.27851 3.61731L5.5 3.5L5.71094 7.70841H6.33984H7.17931H7.54008C7.69514 7.70841 7.84536 7.76286 7.96473 7.86241L8.00339 7.89464C8.07363 7.95323 8.13345 8.0234 8.18028 8.10218L8.26343 8.242C8.36451 8.43505 8.43733 8.64193 8.47947 8.85595M8.41491 9.99071L8.41172 9.99032ZM8.41491 9.99071L8.41606 9.98107L8.49566 9.40819L8.49568 8.93872L8.47947 8.85595M8.47947 8.85595L8.47632 8.85657Z"/>
        </mask>
        <path d="M8.41491 9.99071L8.71272 10.0269L8.71277 10.0264L8.41491 9.99071ZM8.24014 10.88L8.52948 10.9593L8.52948 10.9593L8.24014 10.88ZM8.20727 11L7.91793 10.9207L7.71511 11.6609L8.36613 11.2545L8.20727 11ZM8.50847 10.812L8.66734 11.0664L8.66735 11.0664L8.50847 10.812ZM8.73434 10.6467L8.92877 10.8752L8.92878 10.8752L8.73434 10.6467ZM8.99048 10.382L9.22512 10.569L9.22515 10.5689L8.99048 10.382ZM9.18752 10.1346L9.42219 10.3215L9.43208 10.3091L9.44061 10.2957L9.18752 10.1346ZM9.36138 9.86142L9.10829 9.70034L9.10829 9.70035L9.36138 9.86142ZM9.62775 9.3693L9.35451 9.24546L9.3545 9.24548L9.62775 9.3693ZM9.859 8.71008L10.1497 8.78408L10.1497 8.78407L9.859 8.71008ZM9.93517 8.41079L10.2259 8.48478L10.2283 8.47534L10.2301 8.46576L9.93517 8.41079ZM9.95543 8.30209L9.66052 8.24708L9.66051 8.24711L9.95543 8.30209ZM10.045 6.74387H10.345V6.72359L10.3422 6.70349L10.045 6.74387ZM10.0399 6.70651L10.3372 6.66612L10.3372 6.66608L10.0399 6.70651ZM9.77429 5.64155L10.0557 5.53763L10.0513 5.52578L10.046 5.51434L9.77429 5.64155ZM9.59428 5.2571L9.86597 5.12988L9.85915 5.11532L9.85081 5.10157L9.59428 5.2571ZM9.43523 4.99476L9.69177 4.83924L9.68629 4.8302L9.68019 4.82156L9.43523 4.99476ZM9.35296 4.87841L9.59804 4.70511L9.59213 4.6973L9.35296 4.87841ZM9.25946 4.75493L9.49863 4.57383L9.49112 4.56391L9.48281 4.55464L9.25946 4.75493ZM9.25694 4.75211L9.0333 4.95207L9.03359 4.9524L9.25694 4.75211ZM8.728 4.24155L8.91993 4.01099L8.90493 3.9985L8.88844 3.98806L8.728 4.24155ZM8.67801 4.20991L8.51749 4.46336L8.51756 4.4634L8.67801 4.20991ZM7.88764 3.78721L8.00932 3.51299L8.00924 3.51296L7.88764 3.78721ZM7.81132 3.75337L7.93292 3.47912L7.90992 3.46892L7.88555 3.4627L7.81132 3.75337ZM7.27851 3.61731L7.35273 3.32664L7.32589 3.31978L7.29825 3.31796L7.27851 3.61731ZM5.5 3.5L5.51974 3.20065L5.18351 3.17847L5.20038 3.51502L5.5 3.5ZM7.96473 7.86241L7.77258 8.0928L7.77265 8.09286L7.96473 7.86241ZM8.00339 7.89464L8.19558 7.66428L8.19547 7.66419L8.00339 7.89464ZM8.18028 8.10218L7.92239 8.25546L7.92243 8.25552L8.18028 8.10218ZM8.26343 8.242L8.5292 8.10285L8.52543 8.09565L8.52128 8.08867L8.26343 8.242ZM8.47947 8.85595L8.77387 8.79828L8.77382 8.798L8.47947 8.85595ZM8.41606 9.98107L8.11887 9.93978L8.1182 9.94533L8.41606 9.98107ZM8.49566 9.40819L8.79281 9.44948L8.79566 9.42894L8.79566 9.40821L8.49566 9.40819ZM8.49568 8.93872L8.79568 8.93874L8.79568 8.90962L8.79009 8.88105L8.49568 8.93872ZM5.71094 7.70841L5.41131 7.72343L5.4256 8.00841H5.71094V7.70841ZM8.11709 9.95456C8.0824 10.2404 8.02684 10.5232 7.95081 10.8007L8.52948 10.9593C8.61328 10.6534 8.6745 10.3417 8.71272 10.0269L8.11709 9.95456ZM7.95081 10.8007L7.91793 10.9207L8.4966 11.0793L8.52948 10.9593L7.95081 10.8007ZM8.36613 11.2545L8.66734 11.0664L8.3496 10.5575L8.0484 10.7455L8.36613 11.2545ZM8.66735 11.0664C8.75903 11.0092 8.8464 10.9453 8.92877 10.8752L8.5399 10.4182C8.47992 10.4693 8.41632 10.5158 8.34959 10.5575L8.66735 11.0664ZM8.92878 10.8752C9.03719 10.7829 9.13641 10.6803 9.22512 10.569L8.75583 10.1951C8.69109 10.2764 8.61878 10.3511 8.5399 10.4182L8.92878 10.8752ZM9.22515 10.5689L9.42219 10.3215L8.95284 9.94773L8.7558 10.1952L9.22515 10.5689ZM9.44061 10.2957L9.61447 10.0225L9.10829 9.70035L8.93442 9.97355L9.44061 10.2957ZM9.61447 10.0225C9.7223 9.85307 9.81806 9.67619 9.90101 9.49312L9.3545 9.24548C9.28323 9.40277 9.20095 9.55476 9.10829 9.70034L9.61447 10.0225ZM9.901 9.49314C10.0046 9.26463 10.0878 9.02737 10.1497 8.78408L9.56827 8.63607C9.51505 8.84517 9.44351 9.04908 9.35451 9.24546L9.901 9.49314ZM10.1497 8.78407L10.2259 8.48478L9.64444 8.33679L9.56827 8.63609L10.1497 8.78407ZM10.2301 8.46576L10.2504 8.35706L9.66051 8.24711L9.64025 8.35581L10.2301 8.46576ZM10.2503 8.35709C10.3133 8.01941 10.345 7.67658 10.345 7.33308H9.74497C9.74497 7.63974 9.71672 7.94574 9.66052 8.24708L10.2503 8.35709ZM10.345 7.33308V6.74387H9.74497V7.33308H10.345ZM10.3422 6.70349L10.3372 6.66612L9.74262 6.74689L9.7477 6.78426L10.3422 6.70349ZM10.3372 6.66608C10.2848 6.28072 10.1904 5.90231 10.0557 5.53763L9.49286 5.74548C9.61236 6.06908 9.69612 6.4049 9.74263 6.74693L10.3372 6.66608ZM10.046 5.51434L9.86597 5.12988L9.32258 5.38431L9.50259 5.76877L10.046 5.51434ZM9.85081 5.10157L9.69177 4.83924L9.1787 5.15029L9.33774 5.41262L9.85081 5.10157ZM9.68019 4.82156L9.59791 4.70521L9.10801 5.05161L9.19028 5.16796L9.68019 4.82156ZM9.59213 4.6973L9.49863 4.57383L9.02029 4.93603L9.11379 5.05951L9.59213 4.6973ZM9.48281 4.55464L9.48029 4.55183L9.03359 4.9524L9.03611 4.95522L9.48281 4.55464ZM9.48058 4.55215C9.30714 4.35818 9.11975 4.17732 8.91993 4.01099L8.53607 4.47212C8.71328 4.61965 8.87948 4.78005 9.0333 4.95207L9.48058 4.55215ZM8.88844 3.98806L8.83845 3.95642L8.51756 4.4634L8.56755 4.49505L8.88844 3.98806ZM8.83852 3.95647C8.57326 3.78847 8.29611 3.64026 8.00932 3.51299L7.76596 4.06142C8.02588 4.17677 8.27707 4.31109 8.51749 4.46336L8.83852 3.95647ZM8.00924 3.51296L7.93292 3.47912L7.68973 4.02762L7.76604 4.06146L8.00924 3.51296ZM7.88555 3.4627L7.35273 3.32664L7.20428 3.90798L7.7371 4.04404L7.88555 3.4627ZM7.29825 3.31796L5.51974 3.20065L5.48026 3.79935L7.25876 3.91666L7.29825 3.31796ZM6.33984 8.00841H7.17931V7.40841H6.33984V8.00841ZM7.17931 8.00841H7.54008V7.40841H7.17931V8.00841ZM7.54008 8.00841C7.62479 8.00841 7.70704 8.03814 7.77258 8.0928L8.15688 7.63202C7.98367 7.48757 7.76549 7.40841 7.54008 7.40841V8.00841ZM7.77265 8.09286L7.81132 8.12508L8.19547 7.66419L8.15681 7.63196L7.77265 8.09286ZM7.8112 8.12499C7.85532 8.1618 7.89294 8.20591 7.92239 8.25546L8.43816 7.9489C8.37397 7.8409 8.29193 7.74467 8.19558 7.66428L7.8112 8.12499ZM7.92243 8.25552L8.00558 8.39534L8.52128 8.08867L8.43813 7.94884L7.92243 8.25552ZM7.99766 8.38116C8.08536 8.54866 8.14856 8.72819 8.18512 8.91389L8.77382 8.798C8.72611 8.55567 8.64366 8.32144 8.5292 8.10285L7.99766 8.38116ZM8.45109 9.6929L8.44789 9.69251L8.37554 10.2881L8.37873 10.2885L8.45109 9.6929ZM8.71277 10.0264L8.71393 10.0168L8.1182 9.94533L8.11704 9.95497L8.71277 10.0264ZM8.71321 10.0224L8.79281 9.44948L8.19851 9.36691L8.11892 9.93978L8.71321 10.0224ZM8.79566 9.40821L8.79568 8.93874L8.19568 8.93871L8.19566 9.40818L8.79566 9.40821ZM8.79009 8.88105L8.77387 8.79828L8.18506 8.91361L8.20128 8.99639L8.79009 8.88105ZM8.42118 8.56166L8.41803 8.56229L8.53461 9.15085L8.53776 9.15023L8.42118 8.56166ZM5.20038 3.51502L5.41131 7.72343L6.01056 7.69339L5.79962 3.48498L5.20038 3.51502ZM5.71094 8.00841H6.33984V7.40841H5.71094V8.00841Z" fill="#620771" mask="url(#path-1-outside-1_1355_210)"/>
        <path d="M6.23265 10.1699L6.47925 10.3775V10.0552V7.81382L8.059 7.13791L8.15 7.09897V7V4V3.85H8H7.04198L6.41022 3.46638V1V0.671055L6.16186 0.886748L0.901643 5.45515L0.769202 5.57017L0.903393 5.68315L6.23265 10.1699Z" fill="#FEDE6D" stroke="#620771" stroke-width="0.3"/>
        <path d="M9.25694 4.75211L9.25946 4.75493L9.3529 4.87832L9.43523 4.99476L9.59428 5.2571L9.77429 5.64155C9.90137 5.9857 9.99043 6.34281 10.0399 6.70651L10.045 6.74387V7.33308C10.045 7.65816 10.015 7.98257 9.95543 8.30209L9.93517 8.41079L9.859 8.71008C9.80143 8.93627 9.72404 9.15685 9.62775 9.3693C9.55064 9.53948 9.46162 9.70391 9.36138 9.86142L9.18752 10.1346L8.99048 10.382C8.91375 10.4784 8.82799 10.567 8.73434 10.6467C8.66316 10.7073 8.58768 10.7625 8.50847 10.812L8.20727 11L8.24014 10.88C8.32006 10.5883 8.37845 10.2911 8.41491 9.99071L8.41606 9.98107L8.49566 9.40819L8.49568 8.93872L8.47947 8.85595C8.43733 8.64193 8.36459 8.4352 8.26351 8.24216L8.18028 8.10218C8.13345 8.0234 8.07363 7.95323 8.00339 7.89464L7.96473 7.86241C7.84536 7.76286 7.69514 7.70841 7.54008 7.70841H7.17931H6.31233L6.28125 3.61731H7.27851L7.81132 3.75337L7.88764 3.78721C8.161 3.90851 8.42517 4.04978 8.67801 4.20991L8.728 4.24155C8.91651 4.39848 9.09331 4.56911 9.25694 4.75211Z" fill="#FEDE6D"/>
    </g>
    <defs>
        <filter id="filter0_i_1355_210" x="0.539062" y="0.342163" width="9.80469" height="15.3187" filterUnits="userSpaceOnUse" color-interpolation-filters="sRGB">
            <feFlood flood-opacity="0" result="BackgroundImageFix"/>
            <feBlend mode="normal" in="SourceGraphic" in2="BackgroundImageFix" result="shape"/>
            <feColorMatrix in="SourceAlpha" type="matrix" values="0 0 0 0 0 0 0 0 0 0 0 0 0 0 0 0 0 0 127 0" result="hardAlpha"/>
            <feOffset dy="4"/>
            <feGaussianBlur stdDeviation="2"/>
            <feComposite in2="hardAlpha" operator="arithmetic" k2="-1" k3="1"/>
            <feColorMatrix type="matrix" values="0 0 0 0 0 0 0 0 0 0 0 0 0 0 0 0 0 0 0.25 0"/>
            <feBlend mode="normal" in2="shape" result="effect1_innerShadow_1355_210"/>
        </filter>
    </defs>
</svg>
