<svg width="21" height="21" viewBox="0 0 21 21" fill="none" xmlns="http://www.w3.org/2000/svg">
    <path fill-rule="evenodd" clip-rule="evenodd" d="M6.75 1.5H3C2.60218 1.5 2.22064 1.65804 1.93934 1.93934C1.65804 2.22064 1.5 2.60218 1.5 3V6.75C1.5 7.14782 1.65804 7.52936 1.93934 7.81066C2.22064 8.09196 2.60218 8.25 3 8.25H6.75C7.14782 8.25 7.52936 8.09196 7.81066 7.81066C8.09196 7.52936 8.25 7.14782 8.25 6.75V3C8.25 2.60218 8.09196 2.22064 7.81066 1.93934C7.52936 1.65804 7.14782 1.5 6.75 1.5ZM3 0C2.20435 0 1.44129 0.316071 0.87868 0.87868C0.316071 1.44129 0 2.20435 0 3V6.75C0 7.54565 0.316071 8.30871 0.87868 8.87132C1.44129 9.43393 2.20435 9.75 3 9.75H6.75C7.54565 9.75 8.30871 9.43393 8.87132 8.87132C9.43393 8.30871 9.75 7.54565 9.75 6.75V3C9.75 2.20435 9.43393 1.44129 8.87132 0.87868C8.30871 0.316071 7.54565 0 6.75 0H3ZM18 1.5H14.25C13.8522 1.5 13.4706 1.65804 13.1893 1.93934C12.908 2.22064 12.75 2.60218 12.75 3V6.75C12.75 7.14782 12.908 7.52936 13.1893 7.81066C13.4706 8.09196 13.8522 8.25 14.25 8.25H18C18.3978 8.25 18.7794 8.09196 19.0607 7.81066C19.342 7.52936 19.5 7.14782 19.5 6.75V3C19.5 2.60218 19.342 2.22064 19.0607 1.93934C18.7794 1.65804 18.3978 1.5 18 1.5ZM14.25 0C13.4544 0 12.6913 0.316071 12.1287 0.87868C11.5661 1.44129 11.25 2.20435 11.25 3V6.75C11.25 7.54565 11.5661 8.30871 12.1287 8.87132C12.6913 9.43393 13.4544 9.75 14.25 9.75H18C18.7956 9.75 19.5587 9.43393 20.1213 8.87132C20.6839 8.30871 21 7.54565 21 6.75V3C21 2.20435 20.6839 1.44129 20.1213 0.87868C19.5587 0.316071 18.7956 0 18 0H14.25ZM6.75 12.75H3C2.60218 12.75 2.22064 12.908 1.93934 13.1893C1.65804 13.4706 1.5 13.8522 1.5 14.25V18C1.5 18.3978 1.65804 18.7794 1.93934 19.0607C2.22064 19.342 2.60218 19.5 3 19.5H6.75C7.14782 19.5 7.52936 19.342 7.81066 19.0607C8.09196 18.7794 8.25 18.3978 8.25 18V14.25C8.25 13.8522 8.09196 13.4706 7.81066 13.1893C7.52936 12.908 7.14782 12.75 6.75 12.75ZM3 11.25C2.20435 11.25 1.44129 11.5661 0.87868 12.1287C0.316071 12.6913 0 13.4544 0 14.25V18C0 18.7956 0.316071 19.5587 0.87868 20.1213C1.44129 20.6839 2.20435 21 3 21H6.75C7.54565 21 8.30871 20.6839 8.87132 20.1213C9.43393 19.5587 9.75 18.7956 9.75 18V14.25C9.75 13.4544 9.43393 12.6913 8.87132 12.1287C8.30871 11.5661 7.54565 11.25 6.75 11.25H3ZM18 12.75H14.25C13.8522 12.75 13.4706 12.908 13.1893 13.1893C12.908 13.4706 12.75 13.8522 12.75 14.25V18C12.75 18.3978 12.908 18.7794 13.1893 19.0607C13.4706 19.342 13.8522 19.5 14.25 19.5H18C18.3978 19.5 18.7794 19.342 19.0607 19.0607C19.342 18.7794 19.5 18.3978 19.5 18V14.25C19.5 13.8522 19.342 13.4706 19.0607 13.1893C18.7794 12.908 18.3978 12.75 18 12.75ZM14.25 11.25C13.4544 11.25 12.6913 11.5661 12.1287 12.1287C11.5661 12.6913 11.25 13.4544 11.25 14.25V18C11.25 18.7956 11.5661 19.5587 12.1287 20.1213C12.6913 20.6839 13.4544 21 14.25 21H18C18.7956 21 19.5587 20.6839 20.1213 20.1213C20.6839 19.5587 21 18.7956 21 18V14.25C21 13.4544 20.6839 12.6913 20.1213 12.1287C19.5587 11.5661 18.7956 11.25 18 11.25H14.25Z" fill="white"/>
</svg>
