<svg width="21" height="20" viewBox="0 0 21 20" fill="none" xmlns="http://www.w3.org/2000/svg">
    <rect x="14.8672" y="3" width="1" height="13.2955" transform="rotate(47.9076 14.8672 3)" fill="white"/>
    <rect width="1" height="13.2778" transform="matrix(-0.670328 0.742065 0.742065 0.670328 5.67188 3)" fill="white"/>
    <path fill-rule="evenodd" clip-rule="evenodd" d="M5.25 0C3.85761 0 2.52226 0.553123 1.53769 1.53769C0.553123 2.52226 0 3.85761 0 5.25V12.375C0 13.0712 0.276562 13.7389 0.768845 14.2312C1.26113 14.7234 1.92881 15 2.625 15C3.246 15 3.75 15.504 3.75 16.125V16.968C3.75 18.848 6.022 19.788 7.35 18.46L9.712 16.098C10.0603 15.7498 10.4738 15.4736 10.9288 15.2852C11.3838 15.0968 11.8715 14.9999 12.364 15H15.75C18.65 15 21 12.65 21 9.75V5.25C21 2.35 18.65 0 15.75 0H5.25ZM1.5 5.25C1.5 4.25544 1.89509 3.30161 2.59835 2.59835C3.30161 1.89509 4.25544 1.5 5.25 1.5H15.75C16.7446 1.5 17.6984 1.89509 18.4017 2.59835C19.1049 3.30161 19.5 4.25544 19.5 5.25V9.75C19.5 10.7446 19.1049 11.6984 18.4017 12.4017C17.6984 13.1049 16.7446 13.5 15.75 13.5H12.364C10.9717 13.5002 9.63644 14.0534 8.652 15.038L6.29 17.399C6.2047 17.4838 6.09625 17.5414 5.97827 17.5648C5.86029 17.5881 5.73805 17.576 5.62692 17.5301C5.51578 17.4841 5.42071 17.4063 5.35365 17.3065C5.28658 17.2067 5.25052 17.0893 5.25 16.969V16.125C5.25 15.4288 4.97344 14.7611 4.48116 14.2688C3.98887 13.7766 3.32119 13.5 2.625 13.5C2.32663 13.5 2.04048 13.3815 1.8295 13.1705C1.61853 12.9595 1.5 12.6734 1.5 12.375V5.25Z" fill="white"/>
</svg>
