<svg width="3860" height="1326" viewBox="0 0 3860 1326" fill="none" xmlns="http://www.w3.org/2000/svg">
    <path fill-rule="evenodd" clip-rule="evenodd" d="M0 93C0 41.6376 41.6375 0 93 0H3767C3818.36 0 3860 41.6375 3860 93V1233C3860 1284.36 3818.36 1326 3767 1326H93C41.6375 1326 0 1284.36 0 1233V93ZM1638.56 255.364V619H1573.22V310.051H1414.13V619H1348.79V255.364H1638.56ZM1833.48 624.327C1806.84 624.327 1783.76 618.467 1764.23 606.749C1744.7 595.03 1729.55 578.635 1718.78 557.565C1708.12 536.495 1702.8 511.874 1702.8 483.702C1702.8 455.529 1708.12 430.849 1718.78 409.66C1729.55 388.472 1744.7 372.018 1764.23 360.3C1783.76 348.581 1806.84 342.722 1833.48 342.722C1860.11 342.722 1883.19 348.581 1902.72 360.3C1922.26 372.018 1937.35 388.472 1948 409.66C1958.77 430.849 1964.16 455.529 1964.16 483.702C1964.16 511.874 1958.77 536.495 1948 557.565C1937.35 578.635 1922.26 595.03 1902.72 606.749C1883.19 618.467 1860.11 624.327 1833.48 624.327ZM1833.83 572.835C1848.27 572.835 1860.35 568.87 1870.05 560.939C1879.76 552.89 1886.98 542.118 1891.72 528.624C1896.57 515.129 1899 500.096 1899 483.524C1899 466.834 1896.57 451.741 1891.72 438.247C1886.98 424.634 1879.76 413.803 1870.05 405.754C1860.35 397.705 1848.27 393.68 1833.83 393.68C1819.04 393.68 1806.72 397.705 1796.9 405.754C1787.19 413.803 1779.91 424.634 1775.06 438.247C1770.33 451.741 1767.96 466.834 1767.96 483.524C1767.96 500.096 1770.33 515.129 1775.06 528.624C1779.91 542.118 1787.19 552.89 1796.9 560.939C1806.72 568.87 1819.04 572.835 1833.83 572.835ZM2175.67 544.249L2256.64 346.273H2273.33H2308.49H2334.76V619H2273.33V433.229L2198.22 619H2153.3L2080.68 435.235V619H2018.71V346.273H2045.52H2080.68H2096.84L2175.67 544.249ZM2518.54 624.327C2491.9 624.327 2468.82 618.467 2449.29 606.749C2429.76 595.03 2414.61 578.635 2403.83 557.565C2393.18 536.495 2387.85 511.874 2387.85 483.702C2387.85 455.529 2393.18 430.849 2403.83 409.66C2414.61 388.472 2429.76 372.018 2449.29 360.3C2468.82 348.581 2491.9 342.722 2518.54 342.722C2545.17 342.722 2568.25 348.581 2587.78 360.3C2607.31 372.018 2622.41 388.472 2633.06 409.66C2643.83 430.849 2649.22 455.529 2649.22 483.702C2649.22 511.874 2643.83 536.495 2633.06 557.565C2622.41 578.635 2607.31 595.03 2587.78 606.749C2568.25 618.467 2545.17 624.327 2518.54 624.327ZM2518.89 572.835C2533.33 572.835 2545.41 568.87 2555.11 560.939C2564.82 552.89 2572.04 542.118 2576.77 528.624C2581.63 515.129 2584.05 500.096 2584.05 483.524C2584.05 466.834 2581.63 451.741 2576.77 438.247C2572.04 424.634 2564.82 413.803 2555.11 405.754C2545.41 397.705 2533.33 393.68 2518.89 393.68C2504.09 393.68 2491.78 397.705 2481.96 405.754C2472.25 413.803 2464.97 424.634 2460.12 438.247C2455.38 451.741 2453.02 466.834 2453.02 483.524C2453.02 500.096 2455.38 515.129 2460.12 528.624C2464.97 542.118 2472.25 552.89 2481.96 560.939C2491.78 568.87 2504.09 572.835 2518.89 572.835ZM2931.58 346.273V619H2869.79V532.635C2863.75 533.992 2857.47 535.14 2850.97 536.081C2841.26 537.501 2831.55 538.212 2821.85 538.212C2785.39 538.212 2756.57 530.044 2735.38 513.709C2714.31 497.255 2703.77 471.628 2703.77 436.827V345.918H2765.21V436.827C2765.21 448.545 2767.28 457.956 2771.42 465.058C2775.56 472.16 2781.84 477.369 2790.24 480.683C2798.65 483.879 2809.18 485.477 2821.85 485.477C2836.05 485.477 2849.55 484.057 2862.33 481.216C2864.79 480.669 2867.28 480.082 2869.79 479.456V346.273H2931.58ZM3058.22 566.266V487.785H3120.19C3134.15 487.785 3145.64 491.514 3154.63 498.972C3163.63 506.429 3168.13 516.076 3168.13 527.913C3168.13 539.159 3163.63 548.392 3154.63 555.612C3145.64 562.714 3134.15 566.266 3120.19 566.266H3058.22ZM3058.22 435.051H3120.19C3154.99 435.051 3181.92 443.515 3200.98 460.442C3220.03 477.369 3229.62 499.563 3229.74 527.026C3229.62 544.9 3225.24 560.761 3216.6 574.611C3208.08 588.46 3195.65 599.35 3179.31 607.281C3163.1 615.094 3143.39 619 3120.19 619H2996.25V346.273H3058.22V435.051ZM1339.03 1121.27V746.273H1402.24V791.372H1405.96C1409.28 784.743 1413.95 777.7 1419.99 770.243C1426.03 762.667 1434.2 756.216 1444.49 750.889C1454.79 745.444 1467.93 742.722 1483.91 742.722C1504.98 742.722 1523.98 748.107 1540.91 758.879C1557.95 769.533 1571.45 785.335 1581.39 806.287C1591.45 827.12 1596.48 852.688 1596.48 882.991C1596.48 912.939 1591.57 938.389 1581.75 959.341C1571.92 980.293 1558.55 996.273 1541.62 1007.28C1524.69 1018.29 1505.51 1023.79 1484.09 1023.79C1468.46 1023.79 1455.5 1021.19 1445.2 1015.98C1434.91 1010.77 1426.62 1004.5 1420.35 997.161C1414.19 989.703 1409.4 982.66 1405.96 976.031H1403.3V1121.27H1339.03ZM1402.06 882.636C1402.06 900.274 1404.54 915.721 1409.52 928.979C1414.61 942.236 1421.89 952.594 1431.36 960.051C1440.94 967.39 1452.54 971.06 1466.16 971.06C1480.36 971.06 1492.26 967.272 1501.85 959.696C1511.43 952.002 1518.65 941.526 1523.51 928.268C1528.48 914.893 1530.96 899.682 1530.96 882.636C1530.96 865.709 1528.54 850.676 1523.68 837.537C1518.83 824.398 1511.61 814.099 1502.02 806.642C1492.43 799.185 1480.48 795.456 1466.16 795.456C1452.43 795.456 1440.77 799.066 1431.18 806.287C1421.59 813.508 1414.31 823.628 1409.34 836.649C1404.48 849.67 1402.06 864.999 1402.06 882.636ZM1730.01 1024.5C1712.72 1024.5 1697.16 1021.43 1683.31 1015.27C1669.58 1009 1658.69 999.765 1650.64 987.572C1642.71 975.38 1638.74 960.347 1638.74 942.473C1638.74 927.085 1641.58 914.36 1647.26 904.298C1652.95 894.237 1660.7 886.188 1670.52 880.151C1680.35 874.114 1691.42 869.556 1703.73 866.479C1716.16 863.283 1729 860.974 1742.26 859.554C1758.24 857.897 1771.2 856.417 1781.14 855.115C1791.09 853.695 1798.31 851.564 1802.8 848.723C1807.42 845.764 1809.73 841.206 1809.73 835.051V833.986C1809.73 820.61 1805.76 810.252 1797.83 802.913C1789.9 795.574 1778.48 791.905 1763.56 791.905C1747.82 791.905 1735.33 795.338 1726.1 802.203C1716.98 809.069 1710.83 817.177 1707.63 826.528L1647.62 818.006C1652.35 801.434 1660.17 787.584 1671.06 776.457C1681.95 765.212 1695.26 756.808 1711.01 751.244C1726.75 745.562 1744.15 742.722 1763.21 742.722C1776.35 742.722 1789.43 744.26 1802.45 747.338C1815.47 750.416 1827.37 755.506 1838.14 762.608C1848.91 769.592 1857.55 779.121 1864.06 791.195C1870.69 803.268 1874 818.361 1874 836.472V1019H1812.21V981.536H1810.08C1806.18 989.111 1800.67 996.214 1793.57 1002.84C1786.59 1009.35 1777.77 1014.62 1767.12 1018.64C1756.58 1022.55 1744.21 1024.5 1730.01 1024.5ZM1746.7 977.274C1759.6 977.274 1770.78 974.729 1780.25 969.639C1789.72 964.431 1797 957.565 1802.09 949.043C1807.3 940.52 1809.91 931.228 1809.91 921.166V889.028C1807.89 890.686 1804.46 892.224 1799.61 893.645C1794.87 895.065 1789.55 896.308 1783.63 897.374C1777.71 898.439 1771.85 899.386 1766.05 900.214C1760.25 901.043 1755.22 901.753 1750.96 902.345C1741.37 903.647 1732.79 905.778 1725.21 908.737C1717.64 911.696 1711.66 915.839 1707.28 921.166C1702.9 926.375 1700.71 933.122 1700.71 941.408C1700.71 953.245 1705.03 962.182 1713.67 968.219C1722.31 974.256 1733.32 977.274 1746.7 977.274ZM1923.54 944.249H1987.29C1987.88 954.429 1992.43 962.3 2000.96 967.864C2009.48 973.427 2020.55 976.209 2034.16 976.209C2048.01 976.209 2059.67 973.19 2069.14 967.153C2078.73 960.998 2083.52 951.706 2083.52 939.277C2083.52 931.938 2081.69 925.487 2078.02 919.923C2074.35 914.241 2069.2 909.862 2062.57 906.784C2055.94 903.706 2048.13 902.168 2039.13 902.168H1997.41V856.536H2039.13C2052.51 856.536 2062.63 853.458 2069.49 847.303C2076.48 841.147 2079.97 833.394 2079.97 824.043C2079.97 813.981 2076.3 805.813 2068.96 799.54C2061.74 793.266 2051.74 790.129 2038.95 790.129C2026.17 790.129 2015.52 793.029 2006.99 798.83C1998.59 804.63 1994.21 812.087 1993.86 821.202H1930.47C1930.7 805.34 1935.44 791.55 1944.67 779.831C1954.02 768.112 1966.57 758.998 1982.31 752.487C1998.18 745.977 2016.05 742.722 2035.94 742.722C2057.24 742.722 2075.65 745.918 2091.16 752.31C2106.66 758.702 2118.62 767.639 2127.02 779.121C2135.43 790.484 2139.63 803.86 2139.63 819.249C2139.63 834.045 2135.01 846.296 2125.78 856.003C2116.55 865.591 2104.12 872.456 2088.49 876.599V879.44C2099.26 880.032 2108.97 883.11 2117.61 888.673C2126.25 894.118 2133.12 901.517 2138.21 910.868C2143.3 920.219 2145.84 931.05 2145.84 943.361C2145.84 960.051 2141.05 974.492 2131.46 986.685C2121.87 998.759 2108.68 1008.05 2091.87 1014.56C2075.18 1021.07 2056.06 1024.33 2034.52 1024.33C2013.56 1024.33 1994.8 1021.19 1978.23 1014.92C1961.78 1008.52 1948.7 999.35 1938.99 987.395C1929.28 975.439 1924.13 961.057 1923.54 944.249ZM2196.45 746.273H2310.97C2343.29 746.273 2368.8 752.724 2387.5 765.626C2406.32 778.529 2415.73 796.521 2415.73 819.604C2415.73 834.874 2410.4 847.362 2399.75 857.068C2389.22 866.656 2374.83 873.107 2356.6 876.422C2370.93 877.606 2383.47 881.216 2394.25 887.253C2405.14 893.29 2413.66 901.221 2419.81 911.045C2425.97 920.87 2429.05 932.175 2429.05 944.959C2429.05 959.992 2425.08 973.072 2417.15 984.199C2409.34 995.207 2397.92 1003.79 2382.88 1009.94C2367.97 1015.98 2349.86 1019 2328.55 1019H2196.45V746.273ZM2256.64 968.396H2328.55C2340.39 968.396 2349.68 965.615 2356.43 960.051C2363.17 954.369 2366.55 946.675 2366.55 936.969C2366.55 925.724 2363.17 916.905 2356.43 910.513C2349.68 904.002 2340.39 900.747 2328.55 900.747H2256.64V968.396ZM2256.64 859.199H2312.21C2320.97 859.199 2328.49 857.956 2334.76 855.47C2341.04 852.866 2345.83 849.256 2349.15 844.639C2352.46 839.904 2354.12 834.282 2354.12 827.771C2354.12 818.42 2350.27 811.081 2342.58 805.754C2335 800.428 2324.47 797.764 2310.97 797.764H2256.64V859.199ZM2544.06 931.997L2653.26 746.273H2719.31V1019H2657.16V833.098L2548.32 1019H2482.09V746.273H2544.06V931.997ZM2754.77 799.007V746.273H2993.41V799.007H2905.17V1019H2843.02V799.007H2754.77ZM3106.56 931.997L3215.76 746.273H3281.81V1019H3219.66V833.098L3110.82 1019H3044.59V746.273H3106.56V931.997ZM3395.93 910.868H3447.36C3449.75 927.555 3454.39 942.824 3461.27 956.678C3471.81 977.866 3486.66 994.438 3505.84 1006.39C3525.13 1018.35 3547.92 1024.33 3574.2 1024.33C3600.36 1024.33 3623.03 1018.35 3642.2 1006.39C3661.5 994.438 3676.41 977.866 3686.95 956.678C3697.6 935.489 3702.93 910.986 3702.93 883.169C3702.93 855.352 3697.6 830.908 3686.95 809.838C3676.41 788.768 3661.5 772.314 3642.2 760.477C3623.03 748.64 3600.36 742.722 3574.2 742.722C3547.92 742.722 3525.13 748.64 3505.84 760.477C3486.66 772.314 3471.81 788.768 3461.27 809.838C3454.05 824.29 3449.3 840.329 3447.03 857.956H3395.93V746.273H3331.48V1019H3395.93V910.868ZM3574.2 971.06C3589.71 971.06 3602.37 967.153 3612.2 959.341C3622.02 951.528 3629.24 940.993 3633.86 927.736C3638.48 914.478 3640.78 899.623 3640.78 883.169C3640.78 866.715 3638.48 851.86 3633.86 838.602C3629.24 825.345 3622.02 814.869 3612.2 807.175C3602.37 799.362 3589.71 795.456 3574.2 795.456C3558.57 795.456 3545.79 799.362 3535.85 807.175C3526.02 814.869 3518.8 825.345 3514.19 838.602C3509.57 851.86 3507.26 866.715 3507.26 883.169C3507.26 899.741 3509.57 914.656 3514.19 927.913C3518.8 941.171 3526.02 951.706 3535.85 959.518C3545.79 967.213 3558.57 971.06 3574.2 971.06ZM521.905 224.667C678.046 180.29 850.844 221.157 964.054 328.645L964.057 328.649C1004.63 367.155 1036.12 408.194 1057.63 449.981L1057.63 449.993C1126.11 582.85 1126.22 735.766 1057.95 872.301L1057.94 872.312L1057.94 872.324C995.326 997.956 867.689 1091.94 728.948 1114.45L728.885 1114.46L728.821 1114.47C713.872 1117 686.21 1118.8 657.591 1119.39C628.931 1119.97 601.56 1119.29 587.133 1117.37L587.056 1117.36L586.979 1117.35C469.952 1102.67 354.837 1033.9 277.791 930.898L277.776 930.878L277.762 930.859C193.847 819.245 170.029 663.436 216.225 516.597L216.234 516.568L216.243 516.54C256.52 387.167 386.008 263.144 521.886 224.672L521.896 224.669L521.905 224.667ZM510.98 186.188C680.119 138.12 867.694 181.998 991.595 299.637C1034.9 340.735 1069.32 385.291 1093.19 431.667L1093.19 431.673L1093.19 431.679C1167.66 576.165 1167.55 742.534 1093.73 890.189C1025.37 1027.32 886.83 1129.34 735.419 1153.93C717.405 1156.96 687.322 1158.79 658.408 1159.38C629.542 1159.97 599.604 1159.37 581.921 1157.03C453.311 1140.87 328.788 1065.84 245.777 954.88C153.37 831.957 128.398 662.504 178.06 504.62C222.538 361.797 362.677 228.181 510.98 186.188ZM524.544 789.046C562.74 842.483 679.314 846.342 719.338 823.685C734.029 815.368 737.698 791.296 737.698 774.977C737.698 763.778 734.752 754.978 728.859 748.578C722.639 742.179 706.815 725.935 688.482 721.135C595.506 697.137 531.093 667.162 505.885 645.404C474.456 618.205 469.382 600.441 469.383 553.084C469.382 505.727 482.996 466.035 513.77 437.556C537.99 415.143 570.829 401.55 612.287 396.776V309.812H672.119V395.724C724.757 399.501 787.839 415.906 820.934 455.204L756.933 524.846C720.838 494.533 693.993 491.794 649.797 491.793C621.969 491.794 607.483 495.793 595.697 503.793C583.911 511.473 578.018 521.552 578.019 534.031C578.018 545.231 583.42 554.51 594.224 561.869C605.027 569.549 633.264 581.068 689.573 596.427C752.758 613.707 795.644 634.665 818.234 659.304C840.496 683.942 851.627 716.74 851.627 757.698C851.627 806.975 834.275 847.613 799.573 879.611C767.137 909.804 727.632 933.65 672.119 936.244V1018.35H612.287V933.143C544.55 924.371 473.175 898.471 450.121 857.582L524.544 789.046Z" fill="white"/>
</svg>
