<svg width="252" height="26" viewBox="0 0 252 26" fill="none" xmlns="http://www.w3.org/2000/svg">
    <path fill-rule="evenodd" clip-rule="evenodd" d="M217.159 6.72475C218.976 6.72475 220.556 7.67271 221.03 8.62067L223.715 7.27772C222.688 4.67083 220.003 3.88086 217.317 3.88086C214.157 3.88086 210.602 5.3028 210.286 8.85766C209.97 12.7285 213.051 13.6765 216.527 14.0715C218.739 14.3084 220.398 15.0194 220.24 16.5994C220.161 18.4163 218.186 19.1273 216.132 19.1273C214.078 19.1273 212.182 18.3373 211.55 16.4414L208.706 17.8633C209.733 20.9442 212.34 22.0501 215.816 22.0501C219.608 22.0501 223.162 20.3912 223.478 16.5994C223.873 12.4915 220.635 11.6226 217.08 11.1486C215.026 10.9116 213.288 10.5166 213.446 9.01566C213.525 7.75171 214.789 6.72475 217.159 6.72475ZM25.5184 21.9712C31.6011 21.9712 34.682 17.5474 35.077 13.1235C35.551 8.62071 32.9441 4.11789 27.0983 4.11789C21.2526 4.11789 17.9347 8.7787 17.5397 13.2025C17.1447 17.6264 19.4356 21.9712 25.5184 21.9712ZM25.8344 18.9693C21.8845 18.9693 20.6206 16.0464 20.7786 13.2025C20.9366 10.2796 22.8325 7.04077 26.8613 7.04077C30.8902 7.04077 32.2331 10.3586 31.9171 13.1235C31.6011 15.9674 29.7842 18.9693 25.8344 18.9693ZM6.63574 21.5762C12.6395 21.5762 15.6414 17.2314 15.9574 12.8865C16.2734 8.62071 14.0614 4.51287 8.21567 4.51287H1.50094L0 21.5762H6.63574ZM6.95173 18.4163H3.47586L4.42382 7.51475H7.89969C11.6125 7.51475 12.9555 10.2006 12.7975 12.8075C12.6395 15.5724 10.8226 18.4163 6.95173 18.4163ZM49.4496 4.4338H52.6884L51.1875 21.5761H49.1336L41.2339 10.0426L40.2069 21.5761H36.9681L38.469 4.5128H41.0759L48.5016 15.0984L49.4496 4.4338ZM57.5862 18.3373H66.5129L67.6978 21.5762H71.1737L65.0119 4.51287H61.4571L52.3725 21.5762H55.8483L57.5862 18.3373ZM59.1662 15.3354L62.958 8.06773L65.4859 15.3354H59.1662ZM75.5235 7.43576H70.0727L70.3097 4.51287H84.3711L84.1341 7.43576H78.6833L77.4984 21.5762H74.2595L75.5235 7.43576ZM86.3423 4.51287L84.8414 21.5762H88.0013L89.5022 4.51287H86.3423ZM109.092 13.1235C108.618 17.5474 105.537 21.9712 99.5336 21.9712C93.5299 21.9712 91.16 17.6264 91.5549 13.2025C91.9499 8.7787 95.1888 4.11789 101.114 4.11789C107.038 4.11789 109.487 8.62071 109.092 13.1235ZM94.7148 13.2025C94.5568 16.0464 95.8208 18.9693 99.8496 18.9693C103.878 18.9693 105.616 15.9674 105.932 13.1235C106.248 10.2796 104.905 6.96178 100.877 6.96178C96.8477 6.96178 94.8728 10.2796 94.7148 13.2025ZM126.632 4.4338H123.393L122.524 15.0984L115.019 4.5128H112.413L110.991 21.5761H114.15L115.177 10.0426L123.156 21.5761H125.131L126.632 4.4338ZM141.325 18.4163H132.399L130.661 21.6552H127.185L136.349 4.51287H139.824L145.986 21.6552H142.431L141.325 18.4163ZM137.692 8.14673L133.9 15.4144H140.219L137.692 8.14673ZM151.12 18.6533L152.384 4.51287H149.145L147.644 21.6552H159.651L159.888 18.6533H151.12ZM174.661 21.6552H161.863C162.1 18.8113 162.357 15.9477 162.614 13.084L162.614 13.0767L162.615 13.076L162.615 13.0751L162.615 13.0742L162.615 13.0732C162.871 10.2131 163.128 7.35316 163.364 4.51287H176.162L175.925 7.67275H166.287L165.971 11.6226H175.214L174.977 14.6245H165.655L165.339 18.4953H174.898L174.661 21.6552ZM188.484 21.6552H192.276L192.355 21.4182L187.694 15.5724C190.38 15.1774 192.434 12.8865 192.513 10.2006C192.75 7.19877 190.854 4.51287 186.825 4.51287H178.688L177.187 21.6552H180.347L180.9 15.9674H183.981L188.484 21.6552ZM181.137 12.9655L181.611 7.51475V7.43576H186.509C187.299 7.35676 188.01 7.59375 188.563 8.14673C189.037 8.69971 189.274 9.48968 189.195 10.2006C189.116 10.9906 188.8 11.7016 188.168 12.2546C187.615 12.7285 186.825 13.0445 186.035 12.9655H181.137ZM200.018 7.43576H194.567L194.804 4.51287H208.865L208.628 7.43576H203.177L201.993 21.6552H198.754L200.018 7.43576Z" fill="url(#paint0_radial_0_1)"/>
    <path d="M251.797 5.76692L247.436 0.390977C247.221 0.130326 246.944 0 246.637 0H233.616C233.063 0 232.633 0.423559 232.572 0.977444L231.006 19.8747C230.975 20.1679 231.067 20.4937 231.282 20.7218C231.497 20.9499 231.743 21.0802 232.05 21.0802H234.599L234.2 26L239.236 21.0802H244.948C245.225 21.0802 245.47 20.9825 245.654 20.7544L251.029 15.2155C251.213 15.02 251.305 14.792 251.336 14.5313L251.981 6.54887C252.042 6.28822 251.95 5.99499 251.797 5.76692ZM247.804 13.0326C247.773 13.2932 247.681 13.5539 247.497 13.7168L244.395 16.8772C244.211 17.0727 243.935 17.1704 243.689 17.1704H236.073C235.612 17.1704 235.213 16.8446 235.09 16.3885C235.029 16.2581 235.029 16.1278 235.029 15.9975L235.95 4.9198C235.981 4.36591 236.441 3.90977 236.964 3.90977H244.702C245.01 3.90977 245.286 4.0401 245.47 4.26817L247.927 7.26566C248.111 7.49373 248.203 7.78697 248.173 8.0802L247.804 13.0326ZM241.724 15.1504H240.219C240.127 15.1504 240.035 15.1178 240.004 15.0526C239.973 14.9875 239.912 14.8897 239.912 14.792L240.035 13.1955C240.035 13.0326 240.188 12.9023 240.342 12.9023H241.846C241.939 12.9023 242.031 12.9348 242.061 13C242.092 13.0652 242.154 13.1629 242.154 13.2607L242.031 14.8571C242.031 15.02 241.877 15.1504 241.724 15.1504ZM242 12.1203H240.464C240.28 12.1203 240.157 11.99 240.157 11.7945L240.557 6.74436C240.587 6.58145 240.71 6.45113 240.864 6.45113H242.399C242.583 6.45113 242.706 6.58145 242.706 6.77694L242.276 11.8271C242.276 11.99 242.154 12.1203 242 12.1203Z" fill="url(#paint1_linear_0_1)"/>
    <defs>
        <radialGradient id="paint0_radial_0_1" cx="0" cy="0" r="1" gradientUnits="userSpaceOnUse" gradientTransform="translate(221.586 15.3354) rotate(180) scale(220.796 1159.18)">
            <stop stop-color="#F59C07"/>
            <stop offset="1" stop-color="#F57507"/>
        </radialGradient>
        <linearGradient id="paint1_linear_0_1" x1="247.507" y1="-1.57634" x2="227.579" y2="20.3392" gradientUnits="userSpaceOnUse">
            <stop stop-color="#F59C07"/>
            <stop offset="1" stop-color="#F57507"/>
        </linearGradient>
    </defs>
</svg>
