<svg width="18" height="18" viewBox="0 0 18 18" fill="none" xmlns="http://www.w3.org/2000/svg">
    <path d="M13.125 6.875C13.125 7.04076 13.1908 7.19973 13.3081 7.31694C13.4253 7.43415 13.5842 7.5 13.75 7.5C13.9158 7.5 14.0747 7.43415 14.1919 7.31694C14.3092 7.19973 14.375 7.04076 14.375 6.875V4.375H16.875C17.0408 4.375 17.1997 4.30915 17.3169 4.19194C17.4342 4.07473 17.5 3.91576 17.5 3.75C17.5 3.58424 17.4342 3.42527 17.3169 3.30806C17.1997 3.19085 17.0408 3.125 16.875 3.125H14.375V0.625C14.375 0.45924 14.3092 0.300269 14.1919 0.183058C14.0747 0.065848 13.9158 0 13.75 0C13.5842 0 13.4253 0.065848 13.3081 0.183058C13.1908 0.300269 13.125 0.45924 13.125 0.625V3.125H10.625C10.4592 3.125 10.3003 3.19085 10.1831 3.30806C10.0658 3.42527 10 3.58424 10 3.75C10 3.91576 10.0658 4.07473 10.1831 4.19194C10.3003 4.30915 10.4592 4.375 10.625 4.375H13.125V6.875Z" fill="white"/>
    <path fill-rule="evenodd" clip-rule="evenodd" d="M8.125 6.875C8.125 7.7038 7.79576 8.49866 7.20971 9.08471C6.62366 9.67076 5.8288 10 5 10C4.1712 10 3.37634 9.67076 2.79029 9.08471C2.20424 8.49866 1.875 7.7038 1.875 6.875C1.875 6.0462 2.20424 5.25134 2.79029 4.66529C3.37634 4.07924 4.1712 3.75 5 3.75C5.8288 3.75 6.62366 4.07924 7.20971 4.66529C7.79576 5.25134 8.125 6.0462 8.125 6.875ZM6.875 6.875C6.875 7.37228 6.67746 7.84919 6.32582 8.20082C5.97419 8.55246 5.49728 8.75 5 8.75C4.50272 8.75 4.02581 8.55246 3.67417 8.20082C3.32254 7.84919 3.125 7.37228 3.125 6.875C3.125 6.37772 3.32254 5.90081 3.67417 5.54917C4.02581 5.19754 4.50272 5 5 5C5.49728 5 5.97419 5.19754 6.32582 5.54917C6.67746 5.90081 6.875 6.37772 6.875 6.875ZM10 14.375C10 16.1008 7.76167 17.5 5 17.5C2.23833 17.5 0 16.1008 0 14.375C0 12.6492 2.23833 11.25 5 11.25C7.76167 11.25 10 12.6492 10 14.375ZM8.75 14.375C8.75 14.6517 8.56667 15.0908 7.87333 15.525C7.19667 15.9475 6.18417 16.25 5 16.25C3.81667 16.25 2.80333 15.9475 2.12667 15.525C1.43333 15.0908 1.25 14.6517 1.25 14.375C1.25 14.0983 1.43333 13.6592 2.12667 13.225C2.80333 12.8025 3.81583 12.5 5 12.5C6.18333 12.5 7.19667 12.8025 7.87333 13.225C8.5675 13.6592 8.75 14.0983 8.75 14.375Z" fill="white"/>
</svg>
