<svg width="124" height="43" viewBox="0 0 124 43" fill="none" xmlns="http://www.w3.org/2000/svg">
    <path fill-rule="evenodd" clip-rule="evenodd" d="M118.28 0H5.72024C2.56027 0 0 2.5865 0 5.77701V37.223C0 40.4135 2.56027 43 5.72024 43H118.28C121.44 43 124 40.4135 124 37.223V5.77701C124 2.5865 121.44 0 118.28 0ZM64.0586 13.3801H66.4574C66.4516 15.3136 66.4574 17.2469 66.4805 19.1801C67.2993 17.8805 68.4007 17.5357 69.7904 18.1461C69.9403 18.2621 70.0729 18.3908 70.1883 18.5321C70.4131 18.8152 70.5688 19.1488 70.6438 19.533C70.7649 20.0605 70.8514 20.5925 70.8975 21.1292C70.9264 21.4528 70.9379 21.7782 70.9379 22.1053C70.9724 23.1307 70.9724 24.1562 70.9379 25.1818L70.9264 25.5054C70.9206 25.7569 70.8975 26.0073 70.8687 26.2562C70.8168 26.7438 70.7245 27.2261 70.5976 27.7034C70.0844 29.2581 69.0638 29.7877 67.5357 29.2921C67.0168 29.1054 66.6361 28.7608 66.3824 28.2582L66.1172 29.2668C65.7077 29.2966 65.2984 29.3147 64.889 29.321L64.0586 29.3173V13.3801ZM67.3397 19.6844C67.8471 19.6409 68.1469 19.8762 68.2449 20.3905C68.3315 20.7382 68.3776 21.0911 68.3949 21.4495L68.4122 22.7319C68.4237 23.7502 68.418 24.7685 68.3949 25.7868C68.3891 26.0299 68.3603 26.2683 68.3142 26.5018C68.2623 26.7391 68.1931 26.9715 68.1008 27.199C67.9394 27.473 67.703 27.6073 67.3916 27.6024C67.2704 27.5994 67.1552 27.5806 67.0514 27.5458C66.8149 27.4651 66.6189 27.2991 66.4805 27.0477L66.4689 25.4209V24.6981V24.5037C66.4632 24.429 66.4574 24.3542 66.4632 24.2794V24.0156V23.6453L66.4805 20.6426C66.5555 20.4091 66.665 20.2119 66.8091 20.0508L66.9764 19.8956C67.0455 19.8413 67.1205 19.7928 67.2013 19.75L67.3397 19.6844ZM30.4579 13.9349H27.9611L30.729 24.2739C30.7521 25.9548 30.7636 27.636 30.7521 29.3173H33.2028C33.1913 27.636 33.2028 25.9548 33.2258 24.2739L36.0398 13.9852C35.2094 13.9349 34.3791 13.9181 33.543 13.9349C32.9894 16.4494 32.4704 18.9711 31.9745 21.5L31.346 18.2896L30.4579 13.9349ZM49.412 13.9349H56.7122V16.0027H54.3076V29.3173H51.8627V16.0027H49.412V13.9349ZM85.2212 13.9349H81.6924V29.3173H83.8949C83.889 25.2657 83.8949 21.2142 83.9177 17.1627L85.0714 23.2566L86.2243 29.2668C86.5874 29.3 86.9513 29.3169 87.3255 29.3173L87.8909 29.3037L88.4275 29.2668L90.7281 17.0114C90.751 21.1134 90.7628 25.2152 90.751 29.3173H92.9594V13.9349H89.3848C89.1021 15.4761 88.8076 17.0159 88.5139 18.5546L88.1795 20.2391L87.3026 25.9381L87.0089 23.8153C86.8531 22.7397 86.6915 21.6653 86.5188 20.5921C86.0744 18.3741 85.6419 16.155 85.2212 13.9349ZM14.6869 15.5992C17.3568 15.5045 19.2712 16.6812 20.4418 19.1296C21.3759 21.7599 20.8627 24.0378 18.9022 25.9635C17.1319 27.3682 15.1886 27.6875 13.0723 26.9217C10.8177 25.8567 9.6241 24.0411 9.49722 21.4749C9.64713 18.6436 11.0195 16.7609 13.6086 15.8262C13.9719 15.7333 14.3352 15.6576 14.6869 15.5992ZM13.1935 24.6773L18.5562 21.4749L15.8287 19.8426L13.1704 18.2722C13.1646 20.4073 13.1704 22.5424 13.1935 24.6773ZM42.0945 21.2479C41.8869 18.6883 40.5376 17.5619 38.0523 17.8688L37.8044 17.9131C37.6775 17.9415 37.5506 17.9777 37.4353 18.0215C37.0893 18.1491 36.7836 18.3417 36.5127 18.5993C36.3512 18.753 36.2013 18.9298 36.0686 19.1296C35.6304 19.9794 35.3997 20.8873 35.3824 21.8531L35.3652 23.1938C35.3593 23.991 35.3652 24.7881 35.3824 25.5852C35.4113 26.3677 35.5555 27.124 35.8265 27.8547C36.1955 28.7051 36.824 29.2179 37.7121 29.3929C38.3117 29.4703 38.9173 29.4872 39.5227 29.4434C40.3761 29.3455 41.0335 28.9335 41.5063 28.2077C41.9099 27.3851 42.1233 26.5108 42.1407 25.5852C42.1867 24.1383 42.1694 22.6926 42.0945 21.2479ZM39.5457 20.4914C39.4766 19.906 39.1594 19.6199 38.5943 19.6341C38.4905 19.6781 38.3925 19.7369 38.3002 19.8105C38.0811 20.1528 37.9543 20.5311 37.9312 20.9452C37.8966 22.7777 37.8966 24.6102 37.9312 26.4426C37.9427 26.6091 37.9715 26.7722 38.0119 26.9315C38.0523 27.0916 38.1042 27.2481 38.1734 27.4008C38.4386 27.7049 38.7558 27.7805 39.1306 27.6278C39.4189 27.349 39.5746 27.0044 39.5976 26.5939C39.638 25.7025 39.6611 24.8109 39.6669 23.919C39.6726 23.0458 39.6669 22.1722 39.6438 21.2983C39.6265 21.0276 39.5919 20.7586 39.5457 20.4914ZM74.6864 17.8688C76.987 17.5244 78.2381 18.533 78.4344 20.8949C78.5031 22.104 78.5267 23.3145 78.509 24.5262H74.4436C74.4325 25.1987 74.4436 25.8712 74.4672 26.5434C74.4723 26.9349 74.5934 27.2796 74.8362 27.5775C75.5684 27.8842 76.0179 27.6405 76.1795 26.846C76.2083 26.6819 76.2253 26.517 76.2371 26.3515C76.2541 26.1808 76.26 26.0094 76.2541 25.8373C76.6637 25.8438 77.0734 25.8603 77.483 25.8867L78.4108 25.9635C78.4684 26.3839 78.4632 26.791 78.3879 27.1845C78.3134 27.5905 78.1628 27.982 77.9443 28.359C77.4136 29.0065 76.7331 29.3679 75.9146 29.4434C75.764 29.4658 75.6201 29.4807 75.4761 29.4878L75.0894 29.4888C74.9573 29.483 74.8244 29.4706 74.6915 29.4514C74.2539 29.3877 73.8265 29.2505 73.4116 29.04C72.7831 28.5539 72.3795 27.9067 72.2122 27.0982C72.1199 26.6656 72.0565 26.2284 72.0162 25.787C71.9873 24.3917 71.9873 22.9963 72.0162 21.601C72.0565 20.728 72.2641 19.9041 72.6562 19.1296C73.1464 18.393 73.8265 17.9727 74.6864 17.8688ZM75.1765 19.5835C75.6607 19.5667 75.9434 19.802 76.0356 20.2896C76.1449 21.1934 76.1855 22.1013 76.1567 23.0132H74.4436C74.4207 22.1369 74.4495 21.2627 74.5129 20.3905C74.5646 19.9606 74.7897 19.6916 75.1765 19.5835ZM106.96 18.0452C106.303 17.8885 105.628 17.8297 104.953 17.8688C104.764 17.9173 104.567 17.9592 104.365 17.9948C103.564 18.1819 102.999 18.661 102.676 19.4322C102.093 21.3557 102.578 22.9275 104.117 24.1477C104.908 24.7013 105.634 25.3318 106.298 26.0389C106.626 26.5016 106.643 26.9722 106.349 27.4511C105.945 27.801 105.513 27.843 105.052 27.5773C104.637 27.0721 104.486 26.492 104.608 25.8373C103.893 25.8297 103.178 25.8297 102.456 25.8373L102.405 26.6947C102.347 27.6549 102.676 28.4366 103.385 29.0398C104.498 29.6009 105.657 29.7185 106.862 29.3929C107.871 29.0948 108.465 28.414 108.65 27.3503C108.898 26.1077 108.621 25.015 107.819 24.072C107.468 23.7254 107.099 23.3976 106.718 23.0886C106.078 22.6501 105.484 22.1541 104.931 21.6008C104.688 21.2528 104.59 20.8661 104.637 20.4408C104.671 20.0194 104.89 19.7758 105.294 19.7096C105.784 19.5906 106.118 19.7671 106.298 20.2391C106.424 20.7694 106.482 21.3074 106.47 21.853L107.733 21.8028L108.575 21.7521C108.592 21.1616 108.569 20.5733 108.506 19.987C108.367 19.0208 107.848 18.3738 106.96 18.0452ZM120.287 26.4426L120.234 26.9241L120.177 27.2316L120.079 27.5496C119.952 27.9406 119.768 28.3113 119.526 28.6616C118.85 29.3024 118.049 29.5714 117.127 29.4686C115.252 29.5417 114.208 28.6172 113.99 26.6947C113.949 26.4102 113.915 26.1244 113.892 25.8373C113.863 24.4252 113.863 23.013 113.892 21.6008C113.932 20.6868 114.163 19.8294 114.577 19.0288C115.039 18.3593 115.668 17.981 116.463 17.8939C116.74 17.8738 117.017 17.8666 117.294 17.872C117.622 17.8784 117.951 17.9025 118.274 17.9444C118.85 18.0659 119.295 18.3283 119.612 18.7321C119.698 18.8413 119.773 18.9608 119.842 19.0904C119.935 19.2688 120.01 19.4668 120.062 19.6844C120.229 20.4762 120.269 21.2748 120.188 22.0799C120.177 22.1469 120.142 22.1974 120.09 22.2312C119.404 22.2833 118.718 22.3254 118.032 22.3574C118.015 21.8527 117.991 21.3485 117.956 20.8444C117.928 20.5103 117.847 20.1908 117.714 19.8862C117.657 19.8303 117.599 19.7838 117.542 19.7465L117.403 19.6757C117.328 19.6458 117.248 19.6322 117.167 19.6348C117.011 19.64 116.849 19.707 116.683 19.8357C116.492 20.1964 116.394 20.5831 116.389 20.9957C116.359 22.7945 116.359 24.5933 116.389 26.3921C116.412 26.7213 116.475 27.0406 116.584 27.3503C116.7 27.6111 116.896 27.7288 117.173 27.7034C117.507 27.717 117.738 27.5657 117.859 27.2495C118.038 26.5563 118.112 25.8502 118.078 25.1312C118.499 25.1381 118.914 25.1519 119.335 25.1725L120.287 25.232V26.4426ZM45.8888 18.0706H43.392C43.3804 21.063 43.392 24.0555 43.415 27.0479C43.4323 27.2854 43.4669 27.5208 43.513 27.7539C43.6169 28.4305 43.9513 28.9433 44.5164 29.2921C45.9753 29.7779 47.0939 29.3491 47.8724 28.006L47.9819 28.4861C48.0338 28.7592 48.0685 29.0363 48.0915 29.3174H50.0982V18.0706H47.6014V22.3739C47.6014 23.8983 47.5899 25.4226 47.5783 26.9471C47.5264 27.0553 47.4687 27.1541 47.3938 27.2433C47.3419 27.3094 47.2785 27.3704 47.2092 27.4261C46.4596 27.9004 46.0272 27.6902 45.9118 26.7957C45.8888 23.8874 45.8772 20.9791 45.8888 18.0706ZM55.9337 18.0706H58.4306C58.4191 20.9117 58.4306 23.7529 58.4537 26.5939C58.5344 27.7119 59.0246 27.9474 59.9241 27.3L60.1201 26.9973L60.1375 23.1887C60.1432 21.4828 60.149 19.7767 60.1432 18.0706H62.6401V29.3174C62.2249 29.3227 61.8097 29.3213 61.3888 29.3129L60.6795 29.2921L60.5527 28.5735L60.4373 28.006C60.3566 28.1505 60.2701 28.2844 60.1778 28.4079C60.0049 28.6473 59.8087 28.8472 59.6012 29.007C59.4513 29.1226 59.2898 29.2175 59.1226 29.2914C58.9035 29.3893 58.6671 29.4505 58.4191 29.4751C58.0443 29.5116 57.6407 29.4675 57.2024 29.3426C57.0006 29.2421 56.8276 29.122 56.6777 28.9817L56.5162 28.8122L56.372 28.6189C56.274 28.4651 56.1933 28.2953 56.1414 28.1096L56.0952 27.9391L56.0549 27.7034C56.003 27.4028 55.9741 27.1002 55.9568 26.7957L55.9337 23.2722V18.0706ZM97.0248 18.0706H94.5279C94.5168 21.147 94.5279 24.2235 94.5515 27.3C94.5803 27.6652 94.6607 28.0184 94.7936 28.359C94.984 28.8215 95.3006 29.1493 95.7509 29.3426C97.1983 29.7647 98.2818 29.3024 99.0088 27.9556L99.2281 29.3174H101.188V18.0706H98.6915C98.6974 21.0462 98.6915 24.0219 98.6627 26.9973C98.5992 27.1545 98.501 27.2841 98.38 27.3865L98.2471 27.4765C97.6072 27.8564 97.2035 27.6799 97.0477 26.9471C97.0248 23.9882 97.0138 21.0294 97.0248 18.0706ZM109.999 18.0706H112.398V29.3174H109.999V18.0706ZM16.0363 10.3793H14.4217C13.1877 10.4942 11.994 10.8052 10.8465 11.3123C6.9946 13.2487 4.85528 16.4177 4.42857 20.819V22.181C4.57273 24.1254 5.14937 25.9244 6.17002 27.5773C8.21707 30.6456 11.0484 32.327 14.6639 32.6207H15.7941C19.4788 32.3226 22.3447 30.5909 24.386 27.426C26.1966 24.2659 26.508 20.9541 25.3201 17.4905C23.5614 13.2771 20.4649 10.9067 16.0363 10.3793ZM20.9088 18.1966C19.5307 15.8929 17.5125 14.7497 14.8599 14.7672C13.8623 14.8604 12.9167 15.1547 12.0229 15.6497C9.9124 16.992 8.80525 18.9421 8.68989 21.5C8.85139 24.4045 10.2065 26.4724 12.7552 27.7034C15.7825 28.7621 18.3371 28.0477 20.4187 25.5599C21.9987 23.209 22.1601 20.7545 20.9088 18.1966ZM48.8527 8.27098C48.8181 8.60349 48.7431 8.90634 48.6163 9.17924C48.4894 9.44918 48.328 9.67974 48.1261 9.87109C48.0051 9.98564 47.8667 10.085 47.7224 10.1692C47.6187 10.2278 47.5091 10.279 47.388 10.3228C47.2208 10.3849 47.0421 10.4284 46.8518 10.4532L46.6269 10.4735L46.4539 10.4781C46.1713 10.4781 45.9118 10.4405 45.6754 10.3652C45.5716 10.3302 45.4736 10.289 45.3756 10.2416C45.2602 10.1825 45.1507 10.114 45.0468 10.0358C44.9431 9.96102 44.8508 9.87755 44.7643 9.78547L44.5798 9.56046C44.4472 9.37222 44.3376 9.16678 44.2453 8.944C44.1877 8.80877 44.1416 8.66635 44.1012 8.51682L44.0378 8.22864C43.9974 7.97146 43.9743 7.70323 43.9743 7.42395V6.48743C43.9743 6.22082 43.9974 5.96343 44.0378 5.71564C44.0839 5.46785 44.1473 5.234 44.2338 5.01444C44.3318 4.76973 44.453 4.54855 44.5971 4.3509C44.6605 4.2671 44.7298 4.18836 44.7989 4.11487C44.8969 4.01243 45.0008 3.92012 45.1103 3.83794C45.1968 3.77694 45.2891 3.72228 45.3871 3.67396C45.4966 3.62038 45.6062 3.57477 45.7215 3.53676C45.9464 3.46454 46.1944 3.42852 46.4596 3.42852C46.8172 3.42852 47.1343 3.48191 47.4169 3.58852C47.6994 3.69513 47.9416 3.84573 48.1434 4.0403C48.3452 4.23795 48.5067 4.47633 48.622 4.75561C48.7431 5.0349 48.8181 5.3455 48.8527 5.68741H47.7283C47.7109 5.48342 47.6705 5.29988 47.6071 5.1368C47.5553 4.97047 47.4745 4.82929 47.3765 4.71326C47.2727 4.59724 47.1458 4.50928 46.9959 4.44972C46.846 4.38692 46.6673 4.3556 46.4596 4.3556L46.2521 4.37062C46.1828 4.38077 46.1194 4.39615 46.0617 4.41678C45.9407 4.45751 45.8427 4.51561 45.7504 4.5909C45.6235 4.68195 45.5197 4.80105 45.4332 4.94856C45.3525 5.09282 45.2891 5.25445 45.2314 5.43328C45.1911 5.59021 45.1622 5.758 45.1391 5.93682C45.1218 6.11258 45.1103 6.29286 45.1103 6.47802V7.42395C45.1103 7.65289 45.1276 7.86789 45.1507 8.06865L45.1795 8.24332C45.2026 8.37707 45.2372 8.50236 45.2776 8.61928C45.3179 8.75739 45.3756 8.88276 45.439 8.99575C45.5081 9.10866 45.5889 9.20586 45.6812 9.28748L45.8195 9.39305C45.883 9.4316 45.9464 9.46378 46.0157 9.48988C46.1425 9.53384 46.2924 9.55579 46.4539 9.55579C46.6441 9.55579 46.8172 9.52754 46.9671 9.47105C47.0363 9.44606 47.0997 9.41581 47.1573 9.38038C47.2266 9.33582 47.29 9.28281 47.3534 9.22165C47.4572 9.11504 47.5379 8.98159 47.6014 8.8216C47.6648 8.66161 47.7052 8.47804 47.7224 8.27098H48.8527ZM54.3423 5.2874V10.3793H53.2178V6.20507H51.6378L51.6321 7.46161L51.6263 7.77581L51.6205 7.96516C51.6148 8.12819 51.6033 8.28202 51.5859 8.42629C51.5686 8.58198 51.5455 8.7293 51.511 8.86853L51.4533 9.09924C51.3956 9.30001 51.3206 9.47735 51.2284 9.63104C51.165 9.74254 51.0901 9.84159 51.0036 9.92825C50.8997 10.0345 50.7844 10.1221 50.6518 10.1911C50.5768 10.2304 50.4961 10.2635 50.4096 10.2904C50.2193 10.3498 50.0002 10.3793 49.758 10.3793H49.5158V9.42871L49.683 9.42397C49.856 9.42397 49.9944 9.38631 50.104 9.31106C50.2135 9.23573 50.3 9.11808 50.3577 8.95809L50.3923 8.85007C50.4154 8.7892 50.4269 8.72337 50.4384 8.65219C50.4615 8.53617 50.4788 8.40746 50.4845 8.2663L50.5076 7.8945V7.46161L50.5134 5.2874H54.3423ZM56.2913 12.4299L56.1241 12.4076L55.8415 12.3512L55.9972 11.4711L56.2048 11.4806L56.4066 11.4899C56.4585 11.4899 56.5104 11.4812 56.5623 11.4639C56.6142 11.4474 56.6603 11.4232 56.7007 11.3911C56.7872 11.3283 56.8622 11.2563 56.9256 11.1747L57.0236 11.0402L57.0755 10.9582C57.1216 10.8953 57.1562 10.8295 57.1909 10.7605L57.508 10.1534L55.3514 5.2874H56.5796L57.8425 8.39805L58.0155 8.95809L58.2288 8.41221L59.4513 5.2874H60.6911L58.1192 11.1511C58.0616 11.2829 57.9866 11.4224 57.8943 11.57C57.8078 11.7205 57.6926 11.8587 57.5599 11.9841C57.4273 12.1127 57.2658 12.2193 57.0813 12.3041L56.9602 12.3544C56.8045 12.4087 56.6315 12.4358 56.4354 12.4358L56.2913 12.4299ZM62.4152 5.2874V9.47105H63.1821V5.2874H64.2604V9.47105H65.0274V5.2874H66.1288V10.3793H61.3138V5.2874H62.4152ZM70.5631 10.3793C70.5285 10.3165 70.4996 10.2412 70.4766 10.1534L70.4247 9.87109L70.2517 10.032L70.1594 10.1063C70.0614 10.1785 69.9518 10.2412 69.8307 10.2946C69.75 10.3325 69.6635 10.3646 69.577 10.3912L69.4386 10.4264C69.3002 10.4577 69.1445 10.4735 68.983 10.4735C68.7236 10.4735 68.4814 10.4358 68.2623 10.3605C68.0489 10.2821 67.8644 10.1754 67.7087 10.0405C67.553 9.90868 67.4319 9.75032 67.3454 9.5652C67.2993 9.46667 67.2647 9.36444 67.2417 9.25834C67.2243 9.16152 67.2186 9.06143 67.2186 8.95809C67.2186 8.81507 67.2359 8.68059 67.2647 8.55485C67.2878 8.43519 67.3282 8.32332 67.3801 8.21923C67.4262 8.13071 67.4781 8.04856 67.5415 7.97272C67.6337 7.86285 67.7433 7.76617 67.8701 7.68277C68.0663 7.55102 68.3084 7.45057 68.5967 7.38157C68.885 7.31262 69.2137 7.27804 69.577 7.27804H70.3958V6.93451C70.3958 6.80273 70.3728 6.68345 70.3208 6.57684C70.2805 6.47023 70.2171 6.37756 70.1306 6.29919C70.0672 6.24706 69.9979 6.20308 69.923 6.1676L69.7961 6.12036L69.6001 6.07239C69.5251 6.06045 69.4386 6.05447 69.3521 6.05447C69.2022 6.05447 69.0638 6.0733 68.9485 6.11095L68.862 6.1448L68.7985 6.1781C68.7524 6.20398 68.7063 6.2333 68.6717 6.26625C68.5967 6.3258 68.5391 6.39965 68.4987 6.48743L68.4641 6.59458L68.4468 6.76038H67.3223C67.3223 6.68399 67.3282 6.6087 67.3454 6.53467C67.3685 6.41087 67.4088 6.28996 67.4723 6.17213C67.5357 6.0447 67.6165 5.92723 67.7202 5.8199L67.8817 5.67329C68.0547 5.52577 68.2738 5.40976 68.5276 5.32505C68.6313 5.28939 68.7409 5.26097 68.862 5.23979C69.0349 5.20884 69.2195 5.19327 69.4156 5.19327C69.7096 5.19327 69.9864 5.23092 70.2459 5.30622C70.5054 5.37844 70.7245 5.48667 70.9148 5.63093C70.9955 5.69266 71.0647 5.76161 71.1339 5.83782C71.2204 5.93954 71.2954 6.05412 71.3531 6.18154C71.4626 6.40109 71.5145 6.65522 71.5145 6.94391V9.20749C71.5145 9.4365 71.5318 9.64357 71.5606 9.82869C71.5952 10.0106 71.6414 10.1676 71.7048 10.2993V10.3793H70.5631ZM69.1964 9.56987C69.3463 9.56987 69.479 9.55104 69.6059 9.51338L69.773 9.4531L69.9518 9.36755C70.0556 9.30794 70.1479 9.24048 70.2228 9.16515L70.3266 9.04349L70.3958 8.92984V7.98866H69.6693L69.3694 8.00223C69.2483 8.01379 69.1388 8.03284 69.0408 8.05924C68.862 8.1032 68.7178 8.16748 68.614 8.25222C68.5217 8.32443 68.4468 8.41058 68.4007 8.51103C68.3603 8.61149 68.3372 8.7244 68.3372 8.84984L68.343 8.98018L68.3949 9.14165C68.418 9.19577 68.4468 9.245 68.4814 9.28948L68.5564 9.36755L68.6832 9.45674L68.8216 9.51812C68.9312 9.55267 69.058 9.56987 69.1964 9.56987ZM76.2777 5.2874H77.3959V10.3793H76.2777V6.92038L74.1328 10.3793H73.0138V5.2874H74.1328V8.75102L76.2777 5.2874ZM76.6696 3.20263C76.6696 3.39721 76.635 3.57748 76.5656 3.74382C76.4969 3.90691 76.3988 4.04663 76.2659 4.16266C76.133 4.27868 75.9721 4.36972 75.7876 4.43561C75.6031 4.49841 75.395 4.52972 75.1647 4.52972C74.9285 4.52972 74.7203 4.49841 74.5306 4.43561C74.3461 4.36972 74.1904 4.27868 74.0575 4.16266C73.9247 4.04663 73.8265 3.90691 73.7519 3.74382C73.6826 3.58074 73.648 3.40028 73.648 3.20263H74.4841L74.496 3.33584L74.5188 3.45676C74.5476 3.53513 74.5882 3.60572 74.6458 3.66852L74.7321 3.74672L74.8473 3.81441C74.9336 3.84898 75.0436 3.86617 75.1647 3.86617C75.2798 3.86617 75.3839 3.84898 75.4702 3.81441C75.5507 3.77676 75.6201 3.72662 75.6776 3.66381C75.73 3.60427 75.7699 3.53513 75.7935 3.45676C75.8223 3.37512 75.8334 3.29041 75.8334 3.20263H76.6696ZM83.6469 6.19095H81.6636V10.3793H80.5446V6.19095H78.5843V5.2874H83.6469V6.19095ZM86.3402 10.4061C86.2073 10.3759 86.0745 10.3357 85.9475 10.2852C85.6419 10.1598 85.371 9.98564 85.1518 9.76285C84.9326 9.54326 84.7599 9.28444 84.6389 8.98633C84.5754 8.82849 84.5289 8.66435 84.5001 8.49361C84.4713 8.33852 84.4602 8.17801 84.4602 8.01216V7.81925C84.4602 7.42084 84.5237 7.05994 84.6448 6.73685C84.7717 6.41376 84.9444 6.13755 85.1636 5.90859C85.3829 5.67963 85.6309 5.50387 85.9187 5.38152C86.2132 5.25608 86.5188 5.19327 86.8472 5.19327C87.2104 5.19327 87.5396 5.25608 87.8164 5.38152C88.0983 5.50387 88.3352 5.67492 88.5257 5.89447C88.7154 6.11728 88.86 6.38227 88.9575 6.68979C89.0556 6.99731 89.1021 7.33289 89.1021 7.69685V8.18157H85.5903C85.6249 8.42793 85.6766 8.61453 85.746 8.76518C85.8205 8.91575 85.9187 9.05061 86.0398 9.1699C86.1032 9.23017 86.1667 9.28392 86.2361 9.33115C86.3114 9.38216 86.3918 9.42582 86.4841 9.46163C86.6568 9.53058 86.8413 9.5652 87.0436 9.5652C87.3204 9.5652 87.5794 9.51175 87.8215 9.40514C88.0636 9.29526 88.2599 9.14002 88.4157 8.93925L89.0158 9.52279C88.8482 9.76752 88.5884 9.98705 88.2371 10.1817C87.8909 10.3762 87.4702 10.4735 86.9801 10.4735C86.755 10.4735 86.5417 10.451 86.3402 10.4061ZM86.8413 6.10624L86.6339 6.12416L86.4959 6.16018L86.3977 6.19565C86.2649 6.25213 86.1438 6.33376 86.0398 6.44037L85.9534 6.53829C85.884 6.62608 85.8205 6.72527 85.7689 6.83567C85.6995 6.98935 85.6478 7.16347 85.6131 7.35804H87.995V7.28275C87.995 7.13523 87.9721 6.98935 87.9138 6.84509C87.8621 6.69758 87.7876 6.56907 87.6894 6.45919C87.5971 6.35258 87.4813 6.26788 87.3373 6.20507C87.1934 6.13918 87.0318 6.10624 86.8413 6.10624ZM92.9594 5.2874V10.3793H95.3412C95.6586 10.3793 95.9354 10.3494 96.1827 10.2899C96.4307 10.2271 96.6447 10.1346 96.8174 10.0123C96.9901 9.89297 97.1171 9.74402 97.2094 9.5652C97.3016 9.38327 97.3481 9.17145 97.3481 8.92984C97.3481 8.79172 97.3245 8.66161 97.2787 8.53928C97.25 8.46032 97.2153 8.38537 97.1688 8.31427L97.0765 8.2004C96.9901 8.1032 96.8809 8.01854 96.748 7.94633C96.6787 7.90229 96.5982 7.86411 96.5119 7.83193L96.3096 7.77218L96.2639 7.76276C96.3731 7.72206 96.4772 7.67498 96.5753 7.6216C96.6676 7.56511 96.748 7.50394 96.8174 7.43804C96.9208 7.33759 96.996 7.22464 97.0477 7.09921C97.1053 6.97378 97.1289 6.84038 97.1289 6.6992C97.1289 6.45757 97.0824 6.24906 96.9791 6.0733C96.8809 5.89447 96.7421 5.74696 96.5576 5.63093C96.3731 5.51799 96.1487 5.43328 95.8889 5.37681C95.6291 5.31726 95.3412 5.2874 95.0179 5.2874H92.9594ZM94.0784 9.48046V8.20981H95.3412C95.497 8.20981 95.6291 8.2256 95.745 8.25689C95.8601 8.28818 95.9524 8.33221 96.0218 8.38863C96.0911 8.44209 96.1428 8.50792 96.1775 8.58628C96.2122 8.66161 96.2292 8.74798 96.2292 8.84517C96.2292 8.94563 96.2122 9.03504 96.1775 9.1134C96.1428 9.19177 96.0911 9.25768 96.0218 9.31106C95.9524 9.36444 95.8601 9.40677 95.745 9.43813C95.6291 9.46638 95.497 9.48046 95.3412 9.48046H94.0784ZM95.0585 7.4004H94.0784V6.19095H95.0179C95.1855 6.19095 95.3353 6.20507 95.4623 6.2333C95.5892 6.25846 95.6926 6.29756 95.7738 6.35096C95.8542 6.40435 95.9118 6.47023 95.9465 6.54861C95.9871 6.6239 96.01 6.71332 96.01 6.81685C96.01 6.90464 95.993 6.98156 95.9642 7.04745C95.9295 7.11333 95.883 7.1698 95.8254 7.21687C95.745 7.27967 95.6409 7.32673 95.514 7.35804C95.387 7.38628 95.2313 7.4004 95.0585 7.4004Z" fill="white"/>
</svg>
