<svg width="30" height="30" viewBox="0 0 30 30" fill="none" xmlns="http://www.w3.org/2000/svg">
  <rect width="1.78973" height="14.7718" rx="0.894863" transform="matrix(0.89801 -0.439974 0.696989 0.717082 18 9.78735)" fill="white"/>
  <rect width="1.80251" height="14.4221" rx="0.901254" transform="matrix(0.894984 0.446098 -0.694309 0.719677 28.2344 9.08008)" fill="white"/>
  <path fill-rule="evenodd" clip-rule="evenodd" d="M13.7028 3.08285L9.13906 7.50785C8.78927 7.84694 8.32124 8.03658 7.83406 8.0366H3.75781C3.26053 8.0366 2.78362 8.23415 2.43199 8.58578C2.08036 8.93741 1.88281 9.41432 1.88281 9.9116V19.5541C1.88281 20.0514 2.08036 20.5283 2.43199 20.8799C2.78362 21.2316 3.26053 21.4291 3.75781 21.4291H7.79781C8.04946 21.4289 8.29856 21.4794 8.53028 21.5776C8.76199 21.6757 8.97159 21.8195 9.14656 22.0004L13.6591 26.6679C14.8316 27.8804 16.8828 27.0504 16.8828 25.3641V4.4291C16.8828 2.77285 14.8916 1.9291 13.7028 3.08285Z" fill="white"/>
</svg>
  