<?xml version="1.0" encoding="UTF-8"?>
<svg id="uuid-ffc020b7-bf4a-4e6d-a06d-67e2c25d332d" data-name="Слой 2" xmlns="http://www.w3.org/2000/svg" viewBox="0 0 83 95.44">
  <defs>
    <style>
      .uuid-4d84883b-98e6-41d0-8c6f-2c7171e6be62, .uuid-9cd21586-8461-4302-b173-6f4f1123936a {
        fill: #fff;
        stroke: #000;
        stroke-miterlimit: 10;
      }

      .uuid-9cd21586-8461-4302-b173-6f4f1123936a {
        stroke-linecap: round;
        stroke-width: 2px;
      }
    </style>
  </defs>
  <g id="uuid-5b65e758-c986-4901-bcc3-1b6d1ce35359" data-name="uuid-b5d1e208-1690-4ef4-bdb1-963ca743e626">
    <path class="uuid-4d84883b-98e6-41d0-8c6f-2c7171e6be62" d="M33.5,30.33v33.82c0,2.15-.45,4.19-1.27,6.04-2.32,5.32-7.64,9.05-13.82,9.05h-2.82c-8.33,0-15.09-6.76-15.09-15.09V30.33c0-8.33,6.76-15.09,15.09-15.09h2.82c6.47,0,12,4.08,14.13,9.81,.62,1.64,.96,3.42,.96,5.28h0Z"/>
    <path class="uuid-4d84883b-98e6-41d0-8c6f-2c7171e6be62" d="M82.5,11.76V83.69c0,9.08-10.21,14.41-17.65,9.22l-32.62-22.72c.82-1.85,1.27-3.89,1.27-6.04V30.33c0-1.86-.34-3.64-.96-5.28L64.85,2.54c7.44-5.19,17.65,.14,17.65,9.22Z"/>
    <g>
      <line class="uuid-9cd21586-8461-4302-b173-6f4f1123936a" x1="44.95" y1="31.47" x2="70.1" y2="62.74"/>
      <line class="uuid-9cd21586-8461-4302-b173-6f4f1123936a" x1="70.03" y1="31.88" x2="44.87" y2="63.15"/>
    </g>
  </g>
</svg>