<svg width="259" height="259" viewBox="0 0 259 259" fill="none" xmlns="http://www.w3.org/2000/svg">
<g filter="url(#filter0_d_1220_109)">
    <path fill-rule="evenodd" clip-rule="evenodd" d="M76.44 0.5H182.56C224.501 0.5 258.5 34.4995 258.5 76.44V182.56C258.5 224.501 224.501 258.5 182.56 258.5H76.44C34.4995 258.5 0.5 224.501 0.5 182.56V76.44C0.5 34.4995 34.4995 0.5 76.44 0.5ZM106.23 191.98L189.54 143.98V143.97H189.53C200.26 137.79 200.28 122.32 189.56 116.12L106.34 67.97C95.63 61.78 82.22 69.5 82.21 81.88L82.12 178.03C82.11 190.41 95.5 198.16 106.23 191.98Z" fill="white"/>
    <path d="M189.54 143.98L189.79 144.413L190.04 144.269V143.98H189.54ZM106.23 191.98L106.48 192.413L106.48 192.413L106.23 191.98ZM189.54 143.97H190.04V143.47H189.54V143.97ZM189.53 143.97L189.28 143.537L187.66 144.47H189.53V143.97ZM189.56 116.12L189.31 116.553L189.31 116.553L189.56 116.12ZM106.34 67.97L106.59 67.5372L106.59 67.5371L106.34 67.97ZM82.21 81.88L82.71 81.8805L82.71 81.8804L82.21 81.88ZM82.12 178.03L81.62 178.03L81.62 178.03L82.12 178.03ZM182.56 0H76.44V1H182.56V0ZM259 76.44C259 34.2234 224.777 0 182.56 0V1C224.224 1 258 34.7756 258 76.44H259ZM259 182.56V76.44H258V182.56H259ZM182.56 259C224.777 259 259 224.777 259 182.56H258C258 224.224 224.224 258 182.56 258V259ZM76.44 259H182.56V258H76.44V259ZM0 182.56C0 224.777 34.2234 259 76.44 259V258C34.7756 258 1 224.224 1 182.56H0ZM0 76.44V182.56H1V76.44H0ZM76.44 0C34.2234 0 0 34.2234 0 76.44H1C1 34.7756 34.7756 1 76.44 1V0ZM189.29 143.547L105.98 191.547L106.48 192.413L189.79 144.413L189.29 143.547ZM189.04 143.97V143.98H190.04V143.97H189.04ZM189.53 144.47H189.54V143.47H189.53V144.47ZM189.31 116.553C199.696 122.56 199.677 137.549 189.28 143.537L189.78 144.403C200.843 138.031 200.864 122.08 189.81 115.687L189.31 116.553ZM106.09 68.4028L189.31 116.553L189.81 115.687L106.59 67.5372L106.09 68.4028ZM82.71 81.8804C82.7197 69.8855 95.7127 62.4053 106.09 68.4029L106.59 67.5371C95.5473 61.1547 81.7203 69.1145 81.71 81.8796L82.71 81.8804ZM82.62 178.03L82.71 81.8805L81.71 81.8795L81.62 178.03L82.62 178.03ZM105.98 191.547C95.584 197.535 82.6103 190.026 82.62 178.03L81.62 178.03C81.6097 190.794 95.416 198.785 106.48 192.413L105.98 191.547Z" fill="black"/>
</g>
<defs>
<filter id="filter0_d_1220_109" x="-4" y="0" width="267" height="267" filterUnits="userSpaceOnUse" color-interpolation-filters="sRGB">
    <feFlood flood-opacity="0" result="BackgroundImageFix"/>
    <feColorMatrix in="SourceAlpha" type="matrix" values="0 0 0 0 0 0 0 0 0 0 0 0 0 0 0 0 0 0 127 0" result="hardAlpha"/>
    <feOffset dy="4"/>
    <feGaussianBlur stdDeviation="2"/>
    <feComposite in2="hardAlpha" operator="out"/>
    <feColorMatrix type="matrix" values="0 0 0 0 0 0 0 0 0 0 0 0 0 0 0 0 0 0 0.25 0"/>
    <feBlend mode="normal" in2="BackgroundImageFix" result="effect1_dropShadow_1220_109"/>
    <feBlend mode="normal" in="SourceGraphic" in2="effect1_dropShadow_1220_109" result="shape"/>
</filter>
</defs>
</svg>