<svg width="500" height="500" viewBox="0 0 500 500" fill="none" xmlns="http://www.w3.org/2000/svg">
    <path fill-rule="evenodd" clip-rule="evenodd" d="M58 0C25.9688 0 0 25.9678 0 58V442C0 474.032 25.9688 500 58 500H442C474.031 500 500 474.032 500 442V58C500 25.9678 474.031 0 442 0H58ZM412.48 202.55L471.578 212.21C476.422 213 479.969 217.18 479.961 222.08V277.08C479.961 281.93 476.48 286.09 471.691 286.93L412.512 297.32C409.078 309.18 404.371 320.6 398.441 331.4L433.422 379.97C436.289 383.95 435.84 389.42 432.379 392.89L393.5 431.8C390.059 435.23 384.66 435.72 380.68 432.91L331.629 398.5C320.809 404.52 309.32 409.32 297.328 412.85L286.879 471.75C286.039 476.52 281.891 480 277.039 480H222.039C217.148 480 212.98 476.47 212.191 471.66L202.43 413.05C190.461 409.59 178.91 404.82 167.98 398.81L119.281 432.92C115.309 435.71 109.898 435.23 106.469 431.8L67.5898 392.89C64.1406 389.42 63.6914 383.97 66.5312 380L100.941 331.87C94.8711 320.89 90.0508 309.3 86.5586 297.27L28.25 286.93C23.4805 286.08 20 281.93 20 277.08V222.08C20 217.2 23.5391 213.02 28.3594 212.22L86.6719 202.51C90.1797 190.45 95 178.86 101.051 167.91L67.0586 119.28C64.2695 115.31 64.75 109.91 68.1797 106.48L107.051 67.6104C110.52 64.1602 115.949 63.7002 119.941 66.5498L168.238 101.05C179.09 95.1104 190.609 90.3799 202.609 86.9297L212.172 28.3896C212.961 23.5498 217.141 20 222.039 20H277.039C281.898 20 286.051 23.5 286.891 28.2803L297.199 87.1396C309.129 90.6104 320.629 95.3896 331.52 101.41L379.949 66.5996C383.93 63.7305 389.391 64.1797 392.859 67.6396L431.75 106.51C435.18 109.95 435.66 115.36 432.871 119.33L398.371 168.5C404.289 179.29 409.02 190.69 412.48 202.55ZM179.98 250C179.98 288.66 211.32 320 249.98 320C288.641 320 319.98 288.66 319.98 250C319.98 211.34 288.641 180 249.98 180C211.32 180 179.98 211.34 179.98 250Z" fill="white"/>
</svg>
