<svg width="17" height="20" viewBox="0 0 17 20" fill="none" xmlns="http://www.w3.org/2000/svg">
    <path d="M8.58022 18.4769C8.11618 18.9575 7.56029 19.3399 6.94556 19.6015C6.33084 19.863 5.66982 19.9984 5.00176 19.9995C4.33371 20.0006 3.67224 19.8675 3.05664 19.608C2.44104 19.3485 1.88387 18.9679 1.41822 18.4889C0.51212 17.5564 0.00532169 16.3074 0.00550842 15.0072C0.00569515 13.707 0.512853 12.4581 1.41922 11.5259L7.85522 4.90789C8.13478 4.62041 8.46916 4.39191 8.83858 4.23592C9.20799 4.07992 9.60493 3.99959 10.0059 3.99969C10.4069 3.99978 10.8038 4.08029 11.1732 4.23646C11.5425 4.39263 11.8768 4.62128 12.1562 4.90889C12.6994 5.4678 13.0042 6.21597 13.006 6.99537C13.0079 7.77476 12.7068 8.52438 12.1662 9.08589L7.72522 13.6999C7.63395 13.7945 7.52494 13.8702 7.40441 13.9227C7.28388 13.9752 7.1542 14.0034 7.02275 14.0058C6.89131 14.0082 6.76069 13.9846 6.63835 13.9365C6.51601 13.8884 6.40434 13.8167 6.30972 13.7254C6.2151 13.6341 6.13939 13.5251 6.0869 13.4046C6.03441 13.284 6.00618 13.1544 6.00381 13.0229C6.00144 12.8915 6.02499 12.7609 6.0731 12.6385C6.12121 12.5162 6.19295 12.4045 6.28422 12.3099L10.7242 7.69789C10.9002 7.506 10.9945 7.25303 10.9869 6.99275C10.9793 6.73248 10.8705 6.48543 10.6836 6.30413C10.4967 6.12283 10.2464 6.02158 9.98604 6.02191C9.72565 6.02223 9.47566 6.12412 9.28922 6.30589L2.85322 12.9239C2.3104 13.4822 2.00672 14.2302 2.00672 15.0089C2.00672 15.7876 2.3104 16.5356 2.85322 17.0939C3.13214 17.3807 3.46585 17.6085 3.83453 17.7638C4.20322 17.9192 4.59935 17.9988 4.99942 17.9981C5.39948 17.9973 5.79532 17.9162 6.16342 17.7595C6.53152 17.6028 6.86437 17.3737 7.14222 17.0859L13.6102 10.3869C14.4944 9.47126 14.9919 8.25022 14.9993 6.9774C15.0068 5.70458 14.5236 4.4778 13.6502 3.55189C13.1851 3.05884 12.6235 2.66679 12.0004 2.40012C11.3772 2.13345 10.7059 1.99786 10.0281 2.0018C9.3503 2.00574 8.68057 2.14912 8.06057 2.42302C7.44057 2.69691 6.88357 3.09547 6.42422 3.59389L1.73622 8.67689C1.64699 8.77341 1.53962 8.85141 1.42024 8.90644C1.30086 8.96146 1.17182 8.99244 1.04047 8.99759C0.909119 9.00274 0.778041 8.98198 0.654718 8.93647C0.531396 8.89097 0.418246 8.82162 0.321724 8.73239C0.225202 8.64315 0.147201 8.53578 0.0921745 8.41641C0.0371483 8.29703 0.00617408 8.16798 0.00102043 8.03663C-0.00413322 7.90528 0.0166341 7.77421 0.0621376 7.65088C0.107641 7.52756 0.176991 7.41441 0.266224 7.31789L4.95322 2.23589C5.59852 1.53592 6.38094 0.976212 7.25181 0.591568C8.12268 0.206924 9.06338 0.00557204 10.0154 3.8147e-05C10.9674 -0.00549574 11.9104 0.184907 12.7857 0.559401C13.661 0.933894 14.4498 1.48447 15.1032 2.17689C16.3307 3.47726 17.0099 5.20055 16.9999 6.98871C16.9898 8.77686 16.2912 10.4924 15.0492 11.7789L8.58122 18.4769H8.58022Z" fill="#4C5B98"/>
</svg>
