<svg width="30" height="30" viewBox="0 0 30 30" fill="none" xmlns="http://www.w3.org/2000/svg">
  <path fill-rule="evenodd" clip-rule="evenodd" d="M13.695 3.08261L9.13125 7.50761C8.78146 7.8467 8.31342 8.03634 7.82625 8.03636H3.75C3.25272 8.03636 2.77581 8.2339 2.42417 8.58553C2.07254 8.93716 1.875 9.41408 1.875 9.91136V19.5539C1.875 20.0511 2.07254 20.5281 2.42417 20.8797C2.77581 21.2313 3.25272 21.4289 3.75 21.4289H7.79C8.04164 21.4287 8.29075 21.4792 8.52246 21.5773C8.75418 21.6755 8.96377 21.8193 9.13875 22.0001L13.6512 26.6676C14.8237 27.8801 16.875 27.0501 16.875 25.3639V4.42886C16.875 2.77261 14.8838 1.92886 13.695 3.08261Z" fill="white"/>
  <path d="M23.7229 21.7838C24.088 22.15 24.6855 22.1525 25.0205 21.7575C26.7379 19.7263 27.6801 17.1524 27.6801 14.4925C27.6801 11.8326 26.7379 9.25874 25.0205 7.22753C24.6855 6.83253 24.088 6.83378 23.7229 7.20003C23.3567 7.56628 23.3604 8.15753 23.6892 8.55753C25.0581 10.2323 25.8059 12.3289 25.8059 14.4919C25.8059 16.6549 25.0581 18.7515 23.6892 20.4263C23.3604 20.8263 23.3579 21.4188 23.7229 21.7838Z" fill="white"/>
  <path d="M21.068 19.1325C21.4342 19.4987 22.0342 19.5012 22.3517 19.0937C23.3735 17.7775 23.928 16.1587 23.928 14.4925C23.928 12.8262 23.3735 11.2074 22.3517 9.8912C22.0342 9.48245 21.4342 9.4862 21.068 9.85245C20.7017 10.2175 20.7105 10.8075 21.0105 11.23C21.6881 12.1829 22.0521 13.3232 22.0521 14.4925C22.0521 15.6617 21.6881 16.802 21.0105 17.755C20.7105 18.1762 20.7017 18.7675 21.068 19.1325Z" fill="white"/>
</svg>
