<svg width="18" height="18" viewBox="0 0 18 18" fill="none" xmlns="http://www.w3.org/2000/svg">
    <path d="M1.25 0C0.918479 0 0.600537 0.131696 0.366117 0.366117C0.131696 0.600537 0 0.918479 0 1.25V5.625C0 5.79076 0.065848 5.94973 0.183058 6.06694C0.300269 6.18415 0.45924 6.25 0.625 6.25C0.79076 6.25 0.949732 6.18415 1.06694 6.06694C1.18415 5.94973 1.25 5.79076 1.25 5.625V1.25H5.625C5.79076 1.25 5.94973 1.18415 6.06694 1.06694C6.18415 0.949732 6.25 0.79076 6.25 0.625C6.25 0.45924 6.18415 0.300269 6.06694 0.183058C5.94973 0.065848 5.79076 0 5.625 0H1.25ZM16.25 17.5C16.5815 17.5 16.8995 17.3683 17.1339 17.1339C17.3683 16.8995 17.5 16.5815 17.5 16.25V11.875C17.5 11.7092 17.4342 11.5503 17.3169 11.4331C17.1997 11.3158 17.0408 11.25 16.875 11.25C16.7092 11.25 16.5503 11.3158 16.4331 11.4331C16.3158 11.5503 16.25 11.7092 16.25 11.875V16.25H11.875C11.7092 16.25 11.5503 16.3158 11.4331 16.4331C11.3158 16.5503 11.25 16.7092 11.25 16.875C11.25 17.0408 11.3158 17.1997 11.4331 17.3169C11.5503 17.4342 11.7092 17.5 11.875 17.5H16.25ZM1.25 17.5C0.918479 17.5 0.600537 17.3683 0.366117 17.1339C0.131696 16.8995 0 16.5815 0 16.25V11.875C0 11.7092 0.065848 11.5503 0.183058 11.4331C0.300269 11.3158 0.45924 11.25 0.625 11.25C0.79076 11.25 0.949732 11.3158 1.06694 11.4331C1.18415 11.5503 1.25 11.7092 1.25 11.875V16.25H5.625C5.79076 16.25 5.94973 16.3158 6.06694 16.4331C6.18415 16.5503 6.25 16.7092 6.25 16.875C6.25 17.0408 6.18415 17.1997 6.06694 17.3169C5.94973 17.4342 5.79076 17.5 5.625 17.5H1.25ZM17.5 1.25C17.5 0.918479 17.3683 0.600537 17.1339 0.366117C16.8995 0.131696 16.5815 0 16.25 0H11.875C11.7092 0 11.5503 0.065848 11.4331 0.183058C11.3158 0.300269 11.25 0.45924 11.25 0.625C11.25 0.79076 11.3158 0.949732 11.4331 1.06694C11.5503 1.18415 11.7092 1.25 11.875 1.25H16.25V5.625C16.25 5.79076 16.3158 5.94973 16.4331 6.06694C16.5503 6.18415 16.7092 6.25 16.875 6.25C17.0408 6.25 17.1997 6.18415 17.3169 6.06694C17.4342 5.94973 17.5 5.79076 17.5 5.625V1.25Z" fill="white"/>
</svg>
