<svg width="126" height="43" viewBox="0 0 126 43" fill="none" xmlns="http://www.w3.org/2000/svg">
    <path fill-rule="evenodd" clip-rule="evenodd" d="M6 0C2.68629 0 0 2.68629 0 5.99999V37.0001C0 40.3138 2.68629 43.0001 6 43.0001H119.168C122.482 43.0001 125.168 40.3138 125.168 37.0001V6C125.168 2.68629 122.482 0 119.168 0H6ZM17.4506 13.4778L17.4506 14.9563C17.1411 14.7769 16.8207 14.6143 16.4906 14.4696V12.6946V8.85156L22.7555 10.7688V15.1109L17.4506 13.4778ZM16.4906 14.4696V19.6653C16.4906 19.9685 16.5488 20.3232 16.6079 20.6051C16.3949 20.2901 16.1455 20.0017 15.8658 19.7458C15.0095 18.9627 13.8688 18.4849 12.6163 18.4849C9.95803 18.4849 7.83133 20.6301 7.83133 23.2851C7.83133 25.9401 9.95803 28.0853 12.6163 28.0853C14.8169 28.0853 16.6726 26.6243 17.2463 24.6101C17.3656 24.1913 17.4294 23.3707 17.4294 22.491L17.4294 22.4794L17.4507 22.4723L17.4506 14.9563C20.3218 16.6203 22.2527 19.724 22.2527 23.2781C22.2527 28.5881 17.9428 32.8927 12.6263 32.8927C7.30986 32.8927 3 28.5881 3 23.2781C3 17.9682 7.30986 13.6636 12.6263 13.6636C14.0007 13.6636 15.3079 13.9513 16.4906 14.4696ZM31.9423 26.1597H30.583L27.9918 31.9792H26.1016L28.9476 25.7561C27.6095 25.0765 26.7175 23.8446 26.7175 21.5721C26.7175 18.3862 28.7352 16.7933 31.1352 16.7933H33.5777V31.9792H31.9423V26.1597ZM31.9423 24.8004V18.1738H31.0715C29.7547 18.1738 28.4803 19.0446 28.4803 21.5721C28.4803 24.0145 29.6485 24.8004 31.0715 24.8004H31.9423ZM49.9741 30.6199V34.0818H48.4874V31.9792H43.8998V34.0818H42.4131V30.6199H43.0715C44.0485 28.3473 44.1547 25.034 44.1547 22.188V21.2747H49.1246V30.6199H49.9741ZM57.1741 31.257C56.4945 31.788 55.6025 32.1278 54.5405 32.1278C52.3317 32.1278 50.9724 30.365 50.9724 27.073C50.9724 23.6322 51.9281 21.1261 54.2007 21.1261C55.9848 21.1261 57.1529 22.4641 57.1529 26.096V27.0092H52.6927C52.6927 29.4305 53.3724 30.7048 54.6892 30.7048C55.6237 30.7048 56.3671 30.28 56.7918 29.9827L57.1741 31.257ZM39.8219 21.2747H41.4573V31.9792H39.8219V27.1792H37.3582V31.9792H35.7016V21.2747H37.3582V25.8199H39.8219V21.2747ZM63.3334 31.9792L60.5087 26.6482V31.9792H58.852V21.2747H60.5087V26.2234L63.0786 21.2747H64.7564L62.1016 26.3084L65.1387 31.9792H63.3334ZM69.0255 32.1278C66.7317 32.1278 65.3511 30.28 65.3511 26.6269C65.3511 23.2712 66.6467 21.1261 69.1529 21.1261C70.1087 21.1261 70.6609 21.3809 71.1281 21.6783L70.8945 23.2499C70.4485 22.8676 69.8113 22.5066 69.1317 22.5066C67.9423 22.5066 67.0927 23.8446 67.0927 26.542C67.0927 29.2181 67.7299 30.7473 69.068 30.7473C69.875 30.7473 70.491 30.4287 70.8733 30.0889L71.2556 31.3207C70.6821 31.8092 70.0025 32.1278 69.0255 32.1278ZM47.4892 30.6199V22.6128H45.6414V22.8039C45.6414 25.0553 45.5352 28.3473 44.6432 30.6199H47.4892ZM54.2007 22.4853C53.1812 22.4853 52.8202 23.7384 52.714 25.6499H55.4538C55.4538 23.8234 55.1564 22.4853 54.2007 22.4853ZM77.3299 18.4924C77.3299 19.3207 77.3087 20.5526 77.2662 21.5933L76.8202 31.9792H75.9494L76.6078 16.7933H77.7759L80.0485 26.1597C80.2396 26.903 80.3458 27.6252 80.4095 28.2623H80.452C80.5157 27.6252 80.6432 26.903 80.8343 26.1597L83.1706 16.7933H84.36L85.0184 31.9792H83.9989L83.5529 21.5084C83.5018 20.555 83.5054 19.7791 83.5088 19.0274V19.0272L83.5088 19.0228C83.5096 18.8382 83.5104 18.6551 83.5104 18.4712H83.4467C83.3193 19.4269 83.1706 20.319 82.937 21.211L80.8131 29.6004H79.9848L77.8821 21.211C77.6697 20.3827 77.4998 19.5331 77.3936 18.4924H77.3299ZM87.4609 35.3774C87.2272 35.3774 87.0573 35.3561 86.9087 35.3349L86.8025 34.4004C86.9724 34.4429 87.1848 34.4854 87.4609 34.4854C88.183 34.4854 88.6927 33.7845 89.0113 32.5951L89.0963 32.2765L86.4414 21.2747H87.4396L89.1388 28.2623C89.3299 29.0694 89.4786 29.8553 89.5848 30.6836H89.6485C89.7972 29.834 89.9671 29.0482 90.1582 28.2623L91.8149 21.2747H92.7069L89.9671 32.5314C89.606 33.9756 88.9688 35.3774 87.4609 35.3774ZM96.0839 32.1915C94.3635 32.1915 93.5352 31.0022 93.5352 31.0022L93.875 30.1738C93.875 30.1738 94.5972 31.3207 96.0627 31.3207C97.1671 31.3207 98.0591 30.5349 98.0591 28.9845C98.0591 27.6464 97.4007 26.7331 95.8078 26.7331H94.9158V25.9261H95.7016C96.9335 25.9261 97.8042 25.1827 97.8042 23.7172C97.8042 22.634 97.2308 21.9331 96.1901 21.9331C95.2131 21.9331 94.5122 22.4853 94.045 23.1438L93.7901 22.188C94.2573 21.5721 95.0432 21.0623 96.1901 21.0623C97.868 21.0623 98.76 22.1243 98.76 23.696C98.76 24.7367 98.3352 25.6924 97.1671 26.2659C98.5051 26.7544 99.0786 27.7951 99.0786 28.9632C99.0786 31.0446 97.7193 32.1915 96.0839 32.1915ZM100.841 21.2747H101.84V25.2464H102.625C104.664 25.2464 105.981 26.3508 105.981 28.5809C105.981 30.8535 104.579 31.9792 102.562 31.9792H100.841V21.2747ZM108.105 31.9792H107.128V21.2747H108.105V31.9792ZM102.583 26.0322H101.84V31.1933H102.477C103.985 31.1933 105.004 30.4499 105.004 28.6022C105.004 26.7969 104.112 26.0322 102.583 26.0322ZM111.482 26.4358V31.9792H110.484V21.2747H111.482V26.3084L115.072 21.2747H116.049L112.523 26.2446L116.303 31.9792H115.199L111.482 26.4358ZM117.726 26.7969C117.769 29.7278 118.533 31.3207 120.084 31.3207C121.507 31.3207 122.25 30.1738 122.25 30.1738L122.569 30.9809C122.569 30.9809 121.762 32.1915 120.063 32.1915C117.79 32.1915 116.749 30.1314 116.749 26.6269C116.749 23.1225 118.066 21.0623 119.872 21.0623C121.719 21.0623 122.909 22.9951 122.569 26.7969H117.726ZM119.872 21.8907C118.746 21.8907 117.833 23.3349 117.748 26.011H121.634C121.804 23.165 120.955 21.8907 119.872 21.8907ZM27.2857 5.85239H30.0609V12.1561H30.9331V5.05947H26.4135V12.1561H27.2857V5.85239ZM33.3367 12.0917C33.5977 12.2007 33.8802 12.2552 34.1841 12.2552C34.4881 12.2552 34.7722 12.2007 35.0365 12.0917C35.3008 11.9827 35.5288 11.8175 35.7204 11.5961C35.912 11.3748 36.064 11.0956 36.1763 10.7586C36.2887 10.4216 36.3448 10.0284 36.3448 9.57912C36.3448 9.12979 36.2887 8.73829 36.1763 8.4046C36.064 8.07091 35.912 7.79339 35.7204 7.57204C35.5288 7.35068 35.3008 7.18549 35.0365 7.07646C34.7722 6.96743 34.4881 6.91292 34.1841 6.91292C33.8802 6.91292 33.5977 6.96743 33.3367 7.07646C33.0757 7.18549 32.8477 7.35068 32.6528 7.57204C32.4579 7.79339 32.3059 8.07091 32.1969 8.4046C32.0878 8.73829 32.0333 9.12979 32.0333 9.57912C32.0333 10.0284 32.0878 10.4216 32.1969 10.7586C32.3059 11.0956 32.4579 11.3748 32.6528 11.5961C32.8477 11.8175 33.0757 11.9827 33.3367 12.0917ZM34.7045 11.4078C34.5426 11.4772 34.3691 11.5119 34.1841 11.5119C33.9925 11.5119 33.8174 11.4772 33.6588 11.4078C33.5002 11.3384 33.3615 11.2277 33.2425 11.0758C33.1236 10.9238 33.0311 10.7255 32.965 10.4811C32.8989 10.2366 32.8659 9.93593 32.8659 9.57912C32.8659 9.2223 32.8989 8.92165 32.965 8.67717C33.0311 8.43268 33.1236 8.23446 33.2425 8.08248C33.3615 7.9305 33.5002 7.81982 33.6588 7.75044C33.8174 7.68106 33.9925 7.64637 34.1841 7.64637C34.3691 7.64637 34.5426 7.68106 34.7045 7.75044C34.8664 7.81982 35.0068 7.9305 35.1257 8.08248C35.2447 8.23446 35.3388 8.43268 35.4082 8.67717C35.4776 8.92165 35.5123 9.2223 35.5123 9.57912C35.5123 9.93593 35.4776 10.2366 35.4082 10.4811C35.3388 10.7255 35.2447 10.9238 35.1257 11.0758C35.0068 11.2277 34.8664 11.3384 34.7045 11.4078ZM38.4163 12.0917C38.6939 12.2007 38.9978 12.2552 39.3282 12.2552C39.6123 12.2552 39.8651 12.2172 40.0864 12.1412C40.3078 12.0653 40.4845 11.9744 40.6167 11.8687L40.4284 11.1848C40.2764 11.2905 40.1112 11.3714 39.9328 11.4276C39.7544 11.4838 39.5529 11.5119 39.3282 11.5119C38.8723 11.5119 38.5221 11.3582 38.2776 11.051C38.0331 10.7437 37.9109 10.2597 37.9109 9.59894C37.9109 8.90513 38.0347 8.40626 38.2825 8.1023C38.5303 7.79835 38.8789 7.64637 39.3282 7.64637C39.5727 7.64637 39.7891 7.67941 39.9774 7.74549C40.1657 7.81156 40.326 7.89416 40.4581 7.99328L40.6563 7.26974C40.4978 7.16401 40.3045 7.07811 40.0765 7.01204C39.8485 6.94596 39.5958 6.91292 39.3183 6.91292C38.9945 6.91292 38.6955 6.96909 38.4213 7.08142C38.1471 7.19375 37.9109 7.36224 37.7126 7.5869C37.5144 7.81157 37.3591 8.09239 37.2468 8.42938C37.1344 8.76637 37.0783 9.15622 37.0783 9.59894C37.0783 10.0483 37.1328 10.4381 37.2418 10.7685C37.3508 11.0989 37.5045 11.3748 37.7027 11.5961C37.9009 11.8175 38.1388 11.9827 38.4163 12.0917ZM42.6535 11.388C42.7295 11.2195 42.7906 11.0196 42.8369 10.7883C42.9096 10.4249 42.9591 9.99045 42.9855 9.48496C43.012 8.97947 43.0318 8.38974 43.045 7.71575H44.5416V12.1561H45.3544V7.01204H42.2818C42.2818 7.89747 42.267 8.6243 42.2372 9.19257C42.2075 9.76083 42.1596 10.2168 42.0935 10.5604C42.0406 10.8511 41.9514 11.0592 41.8259 11.1848C41.7003 11.3103 41.4988 11.3863 41.2213 11.4127L41.3303 12.1759C41.5616 12.1561 41.7615 12.1165 41.93 12.057C42.0985 11.9975 42.2422 11.9133 42.3611 11.8043C42.4801 11.6952 42.5775 11.5565 42.6535 11.388ZM46.7668 13.9897C46.8626 14.003 46.9601 14.0096 47.0592 14.0096C47.3037 14.0096 47.5168 13.9716 47.6985 13.8956C47.8802 13.8196 48.0404 13.7023 48.1792 13.5437C48.3179 13.3851 48.4435 13.1853 48.5558 12.9441C48.6681 12.7029 48.7739 12.4204 48.873 12.0966L50.4489 7.01204H49.6461L48.3477 11.3731L47.0393 7.01204H46.1671L47.9116 12.4832C47.8191 12.7805 47.7018 12.9854 47.5597 13.0977C47.4176 13.21 47.2508 13.2662 47.0592 13.2662C46.9468 13.2662 46.8576 13.2596 46.7916 13.2464C46.7255 13.2332 46.6759 13.2199 46.6429 13.2067L46.5339 13.9303C46.5933 13.9567 46.671 13.9765 46.7668 13.9897ZM52.0843 7.01204H51.2716V12.1561H56.8418V7.01204H56.0291V11.4524H54.4631V7.01204H53.6503V11.4524H52.0843V7.01204ZM59.9342 11.4425C59.8153 11.4887 59.6831 11.5119 59.5378 11.5119C58.9893 11.5119 58.7151 11.2376 58.7151 10.6892C58.7151 10.3786 58.8241 10.1441 59.0422 9.98549C59.2602 9.8269 59.627 9.74761 60.1424 9.74761H60.7172V10.7784C60.6644 10.8643 60.5999 10.9502 60.524 11.0361C60.448 11.122 60.3604 11.1996 60.2613 11.269C60.1622 11.3384 60.0532 11.3962 59.9342 11.4425ZM60.7866 11.7993C60.7998 11.9513 60.813 12.0702 60.8263 12.1561H61.5795C61.5729 12.1099 61.5663 12.0504 61.5597 11.9777C61.5531 11.905 61.5481 11.829 61.5448 11.7497L61.5349 11.5168C61.5316 11.4408 61.53 11.3731 61.53 11.3136V8.46903C61.53 7.9338 61.383 7.54065 61.0889 7.28956C60.7949 7.03847 60.3571 6.91292 59.7756 6.91292C59.4453 6.91292 59.1297 6.95752 58.8291 7.04673C58.5284 7.13593 58.2889 7.2367 58.1105 7.34903L58.2889 8.03292C58.4739 7.92059 58.6854 7.82808 58.9232 7.7554C59.1611 7.68271 59.4056 7.64637 59.6567 7.64637C60.0399 7.64637 60.3125 7.71575 60.4744 7.85451C60.6363 7.99328 60.7172 8.23115 60.7172 8.56814V9.09345H60.073C59.3527 9.09345 58.8093 9.22726 58.4425 9.49487C58.0758 9.76248 57.8924 10.1771 57.8924 10.7388C57.8924 10.9899 57.9304 11.2096 58.0064 11.3979C58.0824 11.5862 58.1848 11.7431 58.3137 11.8687C58.4425 11.9942 58.5962 12.09 58.7746 12.1561C58.953 12.2222 59.1413 12.2552 59.3395 12.2552C59.5179 12.2552 59.6798 12.2288 59.8252 12.1759C59.9706 12.1231 60.1011 12.0553 60.2167 11.9727C60.3323 11.8902 60.4347 11.796 60.524 11.6903C60.6132 11.5845 60.6908 11.4788 60.7569 11.3731C60.7635 11.5053 60.7734 11.6473 60.7866 11.7993ZM64.3151 6.23398C64.4869 6.30336 64.6884 6.33805 64.9197 6.33805C65.1444 6.33805 65.3409 6.30336 65.5094 6.23398C65.6779 6.1646 65.8184 6.06879 65.9307 5.94655C66.043 5.82431 66.1273 5.68224 66.1834 5.52035C66.2396 5.35847 66.2677 5.18502 66.2677 5H65.4748C65.4748 5.2577 65.4252 5.44271 65.3261 5.55504C65.227 5.66738 65.0915 5.72354 64.9197 5.72354C64.7413 5.72354 64.6009 5.66738 64.4985 5.55504C64.396 5.44271 64.3448 5.2577 64.3448 5H63.5519C63.5519 5.18502 63.58 5.35847 63.6362 5.52035C63.6923 5.68224 63.7766 5.82431 63.8889 5.94655C64.0012 6.06879 64.1433 6.1646 64.3151 6.23398ZM63.6411 7.01204H62.8284V12.1561H63.6709L65.8415 8.29062L65.8217 9.2223V12.1561H66.6344V7.01204H65.8018L63.6312 10.8973L63.6411 10.2927V7.01204ZM69.7962 12.1561V7.71575H71.1441V7.01204H67.6355V7.71575H68.9834V12.1561H69.7962ZM73.0075 7.98336C73.2322 7.7587 73.513 7.64637 73.85 7.64637C74.0152 7.64637 74.1655 7.6728 74.3009 7.72566C74.4364 7.77853 74.552 7.86112 74.6479 7.97345C74.7437 8.08578 74.813 8.23611 74.856 8.42443C74.8989 8.61275 74.9138 8.83906 74.9006 9.10336H72.5912C72.6441 8.58136 72.7828 8.20803 73.0075 7.98336ZM75.0443 12.0818C75.3119 11.9661 75.5118 11.8555 75.644 11.7497L75.4457 11.0163C75.2937 11.1418 75.1054 11.2558 74.8808 11.3582C74.6561 11.4607 74.3852 11.5119 74.068 11.5119C73.5791 11.5119 73.214 11.3797 72.9728 11.1154C72.7316 10.8511 72.5978 10.4117 72.5714 9.79717H75.6836C75.7497 9.30159 75.7513 8.8721 75.6886 8.50867C75.6258 8.14525 75.5118 7.84626 75.3466 7.61168C75.1814 7.37711 74.9716 7.20201 74.7172 7.08637C74.4628 6.97074 74.1771 6.91292 73.8599 6.91292C73.5559 6.91292 73.2735 6.96909 73.0125 7.08142C72.7514 7.19375 72.5268 7.36059 72.3385 7.58195C72.1501 7.80331 72.0031 8.08083 71.8974 8.41451C71.7917 8.7482 71.7388 9.1364 71.7388 9.57912C71.7388 11.3632 72.4987 12.2552 74.0185 12.2552C74.4348 12.2552 74.7767 12.1974 75.0443 12.0818ZM79.4302 9.84673H81.5017V12.1561H82.3144V7.01204H81.5017V9.14301H79.4302V7.01204H78.6174V12.1561H79.4302V9.84673ZM85.4068 11.4425C85.2878 11.4887 85.1557 11.5119 85.0103 11.5119C84.4619 11.5119 84.1877 11.2376 84.1877 10.6892C84.1877 10.3786 84.2967 10.1441 84.5148 9.98549C84.7328 9.8269 85.0995 9.74761 85.6149 9.74761H86.1898V10.7784C86.1369 10.8643 86.0725 10.9502 85.9965 11.0361C85.9205 11.122 85.833 11.1996 85.7339 11.269C85.6348 11.3384 85.5257 11.3962 85.4068 11.4425ZM86.2592 11.7993C86.2724 11.9513 86.2856 12.0702 86.2988 12.1561H87.0521C87.0455 12.1099 87.0389 12.0504 87.0323 11.9777C87.0257 11.905 87.0207 11.829 87.0174 11.7497L87.0075 11.5168C87.0042 11.4408 87.0025 11.3731 87.0025 11.3136V8.46903C87.0025 7.9338 86.8555 7.54065 86.5615 7.28956C86.2674 7.03847 85.8297 6.91292 85.2482 6.91292C84.9178 6.91292 84.6023 6.95752 84.3017 7.04673C84.001 7.13593 83.7615 7.2367 83.5831 7.34903L83.7615 8.03292C83.9465 7.92059 84.1579 7.82808 84.3958 7.7554C84.6337 7.68271 84.8782 7.64637 85.1293 7.64637C85.5125 7.64637 85.7851 7.71575 85.947 7.85451C86.1089 7.99328 86.1898 8.23115 86.1898 8.56814V9.09345H85.5455C84.8253 9.09345 84.2818 9.22726 83.9151 9.49487C83.5484 9.76248 83.365 10.1771 83.365 10.7388C83.365 10.9899 83.403 11.2096 83.479 11.3979C83.555 11.5862 83.6574 11.7431 83.7863 11.8687C83.9151 11.9942 84.0687 12.09 84.2471 12.1561C84.4256 12.2222 84.6139 12.2552 84.8121 12.2552C84.9905 12.2552 85.1524 12.2288 85.2978 12.1759C85.4431 12.1231 85.5736 12.0553 85.6893 11.9727C85.8049 11.8902 85.9073 11.796 85.9965 11.6903C86.0857 11.5845 86.1634 11.4788 86.2294 11.3731C86.2361 11.5053 86.246 11.6473 86.2592 11.7993Z" fill="white"/>
</svg>
