<svg width="3071" height="3071" viewBox="0 0 3071 3071" fill="none" xmlns="http://www.w3.org/2000/svg">
    <path d="M1344.04 0L1152.58 455.672C1114.29 467.16 1079.83 486.306 1045.37 505.451L589.693 313.993L313.993 589.693L505.451 1045.37C486.305 1083.66 470.989 1114.29 455.672 1152.58L0 1344.04V1726.96L455.672 1918.42C470.989 1956.71 486.305 1987.34 505.451 2025.63L313.993 2481.31L589.693 2757.01L1045.37 2565.55C1079.83 2580.87 1114.29 2600.01 1152.58 2615.33L1344.04 3071H1726.96L1918.42 2615.33C1952.88 2600.01 1991.17 2584.69 2025.63 2565.55L2481.31 2757.01L2757.01 2481.31L2565.55 2025.63C2580.87 1991.17 2600.01 1952.88 2615.33 1918.42L3071 1726.96V1344.04L2615.33 1152.58C2603.84 1118.12 2584.69 1079.83 2565.55 1045.37L2757.01 589.693L2481.31 313.993L2025.63 505.451C1991.17 490.135 1952.88 470.989 1918.42 455.672L1726.96 0L1344.04 0ZM1535.5 957.294C1853.32 957.294 2109.88 1213.85 2109.88 1531.67C2109.88 1849.49 1853.32 2106.05 1535.5 2106.05C1217.68 2106.05 961.123 1849.49 961.123 1531.67C961.123 1213.85 1217.68 957.294 1535.5 957.294Z" fill="white"/>
</svg>
