<svg width="188" height="291" viewBox="0 0 188 291" fill="none" xmlns="http://www.w3.org/2000/svg">
    <path d="M157.1 275.098C134.4 275.098 111.7 275.098 89 275.098C74.3 275.098 59.6 275.098 44.9 275.098C37.7 275.098 26.7 276.798 20.7 271.998C14.3 266.898 14.9 259.598 14.9 252.398C14.9 242.598 14.9 232.798 14.9 222.998C14.9 191.998 14.9 161.098 14.9 130.098C14.9 102.498 14.9 74.798 14.9 47.198C14.9 41.598 14.9 35.998 14.9 30.298C14.9 23.598 18.9 17.898 25.3 15.698C28.1 14.698 31.2 14.998 34.2 14.998C62.3 14.998 90.4 14.998 118.4 14.998C130 14.998 141.6 14.998 153.3 14.998C156.7 14.998 159.7 14.998 163 16.098C168.8 18.098 172.1 24.598 172.1 30.398C172.1 80.398 172.1 130.398 172.1 180.398C172.1 201.198 172.1 221.998 172.1 242.798C172.1 254.998 174.9 274.498 157.1 275.098C147.4 275.398 147.4 290.398 157.1 290.098C174.6 289.598 187.1 275.798 187.1 258.498C187.1 251.498 187.1 244.498 187.1 237.598C187.1 208.798 187.1 179.898 187.1 151.098C187.1 120.898 187.1 90.698 187.1 60.598C187.1 51.998 187.1 43.298 187.1 34.698C187.1 33.198 187.1 31.698 187.1 30.198C187.1 19.798 181.7 10.798 173.4 4.89796C165 -1.10204 153.9 0.0979593 144.1 0.0979593C129.8 0.0979593 115.4 0.0979593 101.1 0.0979593C77.4 0.0979593 53.8 0.0979593 30.1 0.0979593C12.9 0.0979593 0 14.398 0 31.198C0 37.698 0 44.298 0 50.798C0 79.298 0 107.698 0 136.198C0 166.698 0 197.098 0 227.598C0 236.598 0 245.698 0 254.698C0 265.298 1.7 275.198 10.2 282.698C19.2 290.698 30.1 290.198 41.2 290.198C55.2 290.198 69.2 290.198 83.1 290.198C107.7 290.198 132.2 290.198 156.8 290.198C156.9 290.198 157 290.198 157.2 290.198C166.8 290.098 166.8 275.098 157.1 275.098Z" fill="white"/>
    <path d="M112.602 78.898C112.302 89.498 104.102 97.698 93.5018 97.998C82.9018 98.298 74.7018 89.098 74.4018 78.898C74.1018 68.298 83.3018 60.098 93.5018 59.798C104.102 59.498 112.302 68.698 112.602 78.898C112.802 88.598 127.802 88.598 127.602 78.898C127.102 59.998 112.402 45.298 93.5018 44.798C74.6018 44.298 59.9018 60.698 59.4018 78.898C58.9018 97.798 75.3018 112.498 93.5018 112.998C112.402 113.498 127.102 97.098 127.602 78.898C127.802 69.198 112.802 69.198 112.602 78.898Z" fill="white"/>
    <path d="M125.897 197.898C125.597 215.798 111.397 229.998 93.4969 230.298C75.5969 230.598 61.3969 215.398 61.0969 197.898C60.7969 179.998 75.9969 165.798 93.4969 165.498C111.397 165.198 125.597 180.498 125.897 197.898C126.097 207.598 141.097 207.598 140.897 197.898C140.497 173.098 122.097 153.698 97.6969 150.698C73.8969 147.798 51.3969 165.998 46.9969 188.998C42.3969 213.098 57.4969 236.498 80.6969 243.498C104.497 250.598 128.697 236.598 137.797 214.498C139.897 209.298 140.697 203.498 140.797 197.898C140.997 188.198 125.997 188.298 125.897 197.898Z" fill="white"/>
    <path d="M93.5016 205.398C103.202 205.398 103.202 190.398 93.5016 190.398C83.8016 190.398 83.8016 205.398 93.5016 205.398Z" fill="white"/>
</svg>
